<?xml version="1.0" encoding="UTF-8" standalone="no"?> <svg width="64" height="64" viewBox="0 0 64 64" fill="none" xmlns="http://www.w3.org/2000/svg">
<path d="M29.83 29.17L44 15C41.7678 12.7701 39.1166 11.0036 36.1991 9.80227C33.2815 8.60093 30.1552 7.98841 27 7.99998V28C27.5254 27.9996 28.0458 28.1027 28.5314 28.3034C29.017 28.5042 29.4582 28.7986 29.83 29.17Z" fill="#F8664F"/>
<path d="M27 28V7.99998C23.8448 7.98841 20.7185 8.60093 17.8009 9.80227C14.8834 11.0036 12.2322 12.7701 10 15L24.17 29.17C24.5418 28.7986 24.983 28.5042 25.4686 28.3034C25.9542 28.1027 26.4746 27.9996 27 28V28Z" fill="#57B7EB"/>
<path d="M31 32H51C51.0116 28.8448 50.399 25.7185 49.1977 22.8009C47.9964 19.8834 46.2299 17.2322 44 15L29.83 29.17C30.2013 29.5417 30.4958 29.983 30.6965 30.4686C30.8973 30.9542 31.0004 31.4745 31 32V32Z" fill="#57B7EB"/>
<path d="M24.17 29.17L9.99999 15C7.77008 17.2322 6.00363 19.8834 4.80229 22.8009C3.60094 25.7185 2.98843 28.8448 2.99999 32H23C22.9996 31.4745 23.1027 30.9542 23.3034 30.4686C23.5042 29.983 23.7987 29.5417 24.17 29.17V29.17Z" fill="#F8664F"/>
<path d="M51 32H31C31.0004 32.5254 30.8973 33.0458 30.6965 33.5314C30.4958 34.0169 30.2013 34.4582 29.83 34.83L44 49C46.2299 46.7677 47.9964 44.1166 49.1977 41.199C50.3991 38.2815 51.0116 35.1552 51 32V32Z" fill="#F8664F"/>
<path d="M29.83 34.83C29.4582 35.2013 29.017 35.4957 28.5314 35.6965C28.0458 35.8973 27.5254 36.0004 27 36V56C30.1552 56.0115 33.2815 55.399 36.1991 54.1977C39.1166 52.9963 41.7678 51.2299 44 49L29.83 34.83Z" fill="#57B7EB"/>
<path d="M23 32H2.99999C2.98843 35.1552 3.60094 38.2815 4.80229 41.199C6.00363 44.1166 7.77008 46.7677 9.99999 49L24.17 34.83C23.7987 34.4582 23.5042 34.0169 23.3034 33.5314C23.1027 33.0458 22.9996 32.5254 23 32V32Z" fill="#57B7EB"/>
<path d="M24.17 34.83L10 49C12.2322 51.2299 14.8834 52.9963 17.8009 54.1977C20.7185 55.399 23.8448 56.0115 27 56V36C26.4746 36.0004 25.9542 35.8973 25.4686 35.6965C24.983 35.4957 24.5418 35.2013 24.17 34.83Z" fill="#F8664F"/>
<path d="M19.22 24.22L15 20C13.4175 21.5724 12.1611 23.4419 11.3031 25.5012C10.445 27.5606 10.0022 29.7691 10 32H16C15.9995 30.5552 16.2836 29.1246 16.8361 27.7897C17.3886 26.4548 18.1987 25.2418 19.22 24.22V24.22Z" fill="#AAE1F9"/>
<path d="M27 21V15C24.7691 15.0022 22.5606 15.445 20.5013 16.303C18.442 17.1611 16.5724 18.4174 15 20L19.24 24.24C21.2955 22.1748 24.0863 21.0096 27 21V21Z" fill="#F89C8D"/>
<path d="M34.78 24.22L39 20C37.4276 18.4174 35.558 17.1611 33.4987 16.303C31.4394 15.445 29.2309 15.0022 27 15V21C28.4447 20.9995 29.8754 21.2836 31.2103 21.8361C32.5452 22.3886 33.7582 23.1986 34.78 24.22Z" fill="#AAE1F9"/>
<path d="M16 32H10C10.0022 34.2309 10.445 36.4394 11.3031 38.4987C12.1611 40.558 13.4175 42.4275 15 44L19.24 39.76C17.1749 37.7045 16.0096 34.9137 16 32V32Z" fill="#F89C8D"/>
<path d="M34.78 24.22C35.8013 25.2418 36.6114 26.4548 37.1639 27.7897C37.7164 29.1246 38.0005 30.5552 38 32H44C43.9978 29.7691 43.555 27.5606 42.6969 25.5012C41.8389 23.4419 40.5825 21.5724 39 20L34.78 24.22Z" fill="#F89C8D"/>
<path d="M34.78 39.78L39 44C40.5825 42.4275 41.8389 40.558 42.6969 38.4987C43.555 36.4394 43.9978 34.2309 44 32H38C38.0005 33.4447 37.7164 34.8754 37.1639 36.2103C36.6114 37.5452 35.8013 38.7582 34.78 39.78V39.78Z" fill="#AAE1F9"/>
<path d="M19.22 39.78L15 44C16.5724 45.5825 18.442 46.8389 20.5013 47.6969C22.5606 48.5549 24.7691 48.9978 27 49V43C25.5553 43.0004 24.1246 42.7163 22.7897 42.1638C21.4548 41.6113 20.2418 40.8013 19.22 39.78Z" fill="#AAE1F9"/>
<path d="M27 43V49C29.2309 48.9978 31.4394 48.555 33.4987 47.6969C35.558 46.8389 37.4276 45.5825 39 44L34.76 39.76C32.7045 41.8251 29.9137 42.9903 27 43V43Z" fill="#F89C8D"/>
<path d="M27 36C29.2091 36 31 34.2091 31 32C31 29.7908 29.2091 28 27 28C24.7909 28 23 29.7908 23 32C23 34.2091 24.7909 36 27 36Z" fill="#FCBC04"/>
<path d="M51 34L35 35.6C34.4954 35.6533 33.9852 35.5999 33.5025 35.4432C33.0199 35.2866 32.5755 35.0302 32.1983 34.6907C31.8212 34.3513 31.5196 33.9363 31.3131 33.4728C31.1067 33.0092 31 32.5074 31 32V32C31 31.4926 31.1067 30.9908 31.3131 30.5273C31.5196 30.0637 31.8212 29.6487 32.1983 29.3093C32.5755 28.9698 33.0199 28.7135 33.5025 28.5568C33.9852 28.4002 34.4954 28.3467 35 28.4L51 30V34Z" fill="#C4F236"/>
<path d="M61 29C59.6251 27.899 57.8923 27.3442 56.1336 27.442C54.375 27.5398 52.7143 28.2833 51.47 29.53L51 30V32H59L61 29Z" fill="#C4F236"/>
<path d="M51 32V34L51.47 34.47C52.7143 35.7167 54.375 36.4602 56.1336 36.558C57.8923 36.6558 59.6251 36.101 61 35L59 32H51Z" fill="#C4F236"/>
<path d="M39.6 33.34C38.1454 33.4866 36.6873 33.097 35.4996 32.2444C34.312 31.3919 33.4764 30.1351 33.15 28.71C32.3625 29.0586 31.7256 29.6773 31.3543 30.4542C30.9829 31.2312 30.9015 32.1154 31.1249 32.9471C31.3482 33.7788 31.8615 34.5033 32.5721 34.9898C33.2827 35.4763 34.1438 35.6927 35 35.6L51 34V32.2L39.6 33.34Z" fill="#A1D51C"/>
<path d="M53.47 32.47L53 32L51 32.2V34L51.47 34.47C52.7143 35.7167 54.375 36.4602 56.1336 36.558C57.8923 36.6558 59.6251 36.101 61 35L60.52 34.28C59.2906 34.6393 57.9872 34.6609 56.7466 34.3424C55.5061 34.0239 54.3742 33.3771 53.47 32.47V32.47Z" fill="#A1D51C"/>
<path d="M35 28.4V35.6L39 35.2V28.8L35 28.4Z" fill="#F9E109"/>
<path d="M39 28.8V35.2L43 34.8V29.2L39 28.8Z" fill="#FCBC04"/>
<path d="M35 31.84V35.6L39 35.2V33.37C37.5239 33.3694 36.0997 32.8247 35 31.84Z" fill="#FCBC04"/>
<path d="M39 33.37V35.2L43 34.8V33L39.6 33.34L39 33.37Z" fill="#E59730"/>
<path d="M43.87 56.11L28.36 51.78C27.879 51.6393 27.4325 51.4003 27.0488 51.0781C26.665 50.7559 26.3523 50.3575 26.1304 49.9082C25.9086 49.4589 25.7824 48.9684 25.76 48.4678C25.7375 47.9672 25.8193 47.4674 26 47C26.1827 46.53 26.4619 46.1035 26.8195 45.748C27.1772 45.3926 27.6053 45.1159 28.0763 44.936C28.5474 44.756 29.0509 44.6768 29.5545 44.7033C30.058 44.7298 30.5504 44.8616 31 45.09L45.34 52.4L43.87 56.11Z" fill="#C4F236"/>
<path d="M55 55.08C54.121 53.5528 52.7104 52.4028 51.0374 51.8494C49.3644 51.2961 47.5463 51.3782 45.93 52.08L45.32 52.35L44.59 54.21L52.05 57.12L55 55.08Z" fill="#C4F236"/>
<path d="M44.59 54.24L43.87 56.11L44.13 56.72C44.8303 58.3409 46.1049 59.6459 47.7089 60.3842C49.3129 61.1226 51.1332 61.2421 52.82 60.72L52.05 57.2L44.59 54.24Z" fill="#C4F236"/>
<path d="M33.48 51.35C32.0723 50.9566 30.8566 50.0628 30.0611 48.8366C29.2657 47.6103 28.9453 46.1358 29.16 44.69C28.299 44.7255 27.4791 45.0679 26.8485 45.6551C26.218 46.2424 25.8182 47.0359 25.7216 47.8922C25.625 48.7484 25.8379 49.611 26.3217 50.3241C26.8056 51.0371 27.5286 51.5535 28.36 51.78L43.87 56.11L44.52 54.43L33.48 51.35Z" fill="#A1D51C"/>
<path d="M46.72 55.58L46.46 55L44.52 54.46L43.87 56.14L44.13 56.75C44.8303 58.3709 46.1049 59.6759 47.7089 60.4142C49.3129 61.1526 51.1332 61.2721 52.82 60.75L52.63 59.91C51.3463 59.7874 50.1195 59.3203 49.0792 58.5582C48.039 57.796 47.2239 56.7671 46.72 55.58V55.58Z" fill="#A1D51C"/>
<path d="M31 45.08L28.38 51.78L32.25 52.86L34.58 46.9L31 45.08Z" fill="#F9E109"/>
<path d="M34.58 46.9L32.25 52.86L36.12 53.95L38.16 48.73L34.58 46.9Z" fill="#FCBC04"/>
<path d="M29.75 48.28L28.38 51.78L32.25 52.86L32.92 51.16C31.542 50.6276 30.4118 49.6008 29.75 48.28V48.28Z" fill="#FCBC04"/>
<path d="M32.92 51.16L32.25 52.86L36.12 54L36.78 52.32L33.48 51.4L32.92 51.16Z" fill="#E59730"/>
<path d="M51.8 14.36L38.64 23.63C38.2264 23.9217 37.7562 24.1235 37.2598 24.2223C36.7634 24.3211 36.2518 24.3147 35.758 24.2035C35.2642 24.0923 34.7992 23.8788 34.3931 23.5768C33.9869 23.2747 33.6486 22.8909 33.4 22.45V22.45C33.1518 22.01 32.9984 21.523 32.9497 21.0202C32.901 20.5174 32.9581 20.01 33.1173 19.5305C33.2765 19.0511 33.5342 18.6103 33.874 18.2365C34.2137 17.8627 34.6279 17.5641 35.09 17.36L49.83 10.88L51.8 14.36Z" fill="#C4F236"/>
<path d="M58.05 5.08999C56.3172 4.81971 54.5455 5.19478 53.0709 6.14405C51.5963 7.09333 50.5214 8.55079 50.05 10.24L49.87 10.88L50.87 12.62L57.87 8.68999L58.05 5.08999Z" fill="#C4F236"/>
<path d="M50.82 12.62L51.82 14.36L52.46 14.54C54.1533 15.0064 55.959 14.8343 57.5336 14.0562C59.1082 13.2781 60.3419 11.9484 61 10.32L57.78 8.68997L50.82 12.62Z" fill="#C4F236"/>
<path d="M41.54 19.39C40.3465 20.2292 38.8882 20.6048 37.4378 20.4466C35.9874 20.2883 34.6444 19.6069 33.66 18.53C33.1372 19.2201 32.8799 20.0752 32.9349 20.9393C32.9899 21.8033 33.3537 22.6188 33.9598 23.2371C34.5659 23.8553 35.3741 24.2351 36.2369 24.3073C37.0997 24.3794 37.9596 24.139 38.66 23.63L51.8 14.36L50.91 12.8L41.54 19.39Z" fill="#A1D51C"/>
<path d="M53.2 11.82L52.56 11.64L50.91 12.8L51.8 14.36L52.44 14.54C54.1361 15.012 55.9466 14.8426 57.5256 14.0641C59.1047 13.2857 60.3416 11.9527 61 10.32L60.23 9.92999C59.3342 10.8448 58.2096 11.5027 56.9731 11.8351C55.7367 12.1675 54.4337 12.1623 53.2 11.82Z" fill="#A1D51C"/>
<path d="M35.11 17.35L38.65 23.62L41.94 21.31L38.79 15.73L35.11 17.35Z" fill="#F9E109"/>
<path d="M38.79 15.73L41.94 21.31L45.23 18.99L42.47 14.12L38.79 15.73Z" fill="#FCBC04"/>
<path d="M36.8 20.35L38.65 23.62L41.94 21.31L41.04 19.71C39.7537 20.4383 38.2439 20.6662 36.8 20.35V20.35Z" fill="#FCBC04"/>
<path d="M41 19.71L41.9 21.31L45.23 19L44.34 17.43L41.54 19.43C41.3655 19.5336 41.1852 19.6271 41 19.71V19.71Z" fill="#E59730"/>
<path d="M42.79 38.33C42.55 38.2173 42.275 38.2046 42.0256 38.2946C41.7762 38.3846 41.5727 38.57 41.46 38.81C40.8195 40.172 39.9915 41.4377 39 42.57L35.34 38.91C35.2503 38.8053 35.14 38.7203 35.016 38.6603C34.8919 38.6002 34.7568 38.5665 34.619 38.5612C34.4813 38.5559 34.344 38.5791 34.2157 38.6294C34.0873 38.6796 33.9708 38.7559 33.8733 38.8533C33.7759 38.9508 33.6996 39.0673 33.6493 39.1957C33.5991 39.324 33.5759 39.4613 33.5812 39.599C33.5865 39.7368 33.6202 39.8719 33.6803 39.996C33.7403 40.12 33.8253 40.2303 33.93 40.32L39 45.38C39.0934 45.4727 39.2042 45.546 39.3261 45.5958C39.4479 45.6455 39.5784 45.6708 39.71 45.67C39.8416 45.6708 39.9721 45.6455 40.0939 45.5958C40.2157 45.546 40.3265 45.4727 40.42 45.38C40.6002 45.1935 40.701 44.9443 40.701 44.685C40.701 44.4257 40.6002 44.1765 40.42 43.99C41.5861 42.6949 42.5564 41.2361 43.3 39.66C43.3548 39.5393 43.3851 39.409 43.3891 39.2765C43.3931 39.144 43.3707 39.012 43.3233 38.8883C43.2758 38.7645 43.2042 38.6514 43.1127 38.5556C43.0211 38.4598 42.9114 38.3831 42.79 38.33V38.33Z" fill="#39519D"/>
<path d="M46 48.25C48.4507 45.3811 50.2245 41.9975 51.19 38.35C51.2563 38.0927 51.2177 37.8197 51.0827 37.5909C50.9476 37.3621 50.7272 37.1963 50.47 37.13C50.2127 37.0637 49.9397 37.1023 49.7109 37.2373C49.4821 37.3724 49.3163 37.5927 49.25 37.85C48.3706 41.2228 46.7361 44.3516 44.47 47C44.3457 47.1453 44.2657 47.3231 44.2394 47.5125C44.2131 47.7018 44.2417 47.8947 44.3216 48.0684C44.4016 48.242 44.5297 48.3891 44.6907 48.4921C44.8517 48.5952 45.0388 48.65 45.23 48.65C45.3801 48.6454 45.5273 48.6071 45.6606 48.5379C45.7939 48.4686 45.9099 48.3702 46 48.25V48.25Z" fill="#39519D"/>
<path d="M27 55C21.2544 55.0163 15.7121 52.875 11.47 49L15 45.4C16.0246 46.3201 17.152 47.1188 18.36 47.78C18.5044 47.858 18.6659 47.8992 18.83 47.9C19.0612 47.9133 19.2899 47.846 19.477 47.7094C19.6641 47.5729 19.798 47.3757 19.8559 47.1514C19.9137 46.9271 19.8919 46.6897 19.7942 46.4797C19.6964 46.2697 19.5288 46.1002 19.32 46C18.2883 45.438 17.3195 44.7675 16.43 44L19.26 41.17C20.6336 42.3337 22.2548 43.1682 24 43.61C24.083 43.6198 24.167 43.6198 24.25 43.61C24.5152 43.6431 24.7827 43.5696 24.9937 43.4055C25.2047 43.2414 25.3418 43.0002 25.375 42.735C25.4082 42.4698 25.3346 42.2023 25.1705 41.9913C25.0064 41.7803 24.7652 41.6431 24.5 41.61C23.1133 41.2397 21.8213 40.5784 20.71 39.67L24.29 36.1C24.804 36.4728 25.3844 36.7443 26 36.9V40.54C26 40.8052 26.1054 41.0596 26.2929 41.2471C26.4804 41.4346 26.7348 41.54 27 41.54C27.2652 41.54 27.5196 41.4346 27.7071 41.2471C27.8946 41.0596 28 40.8052 28 40.54V36C28 35.7348 27.8946 35.4804 27.7071 35.2929C27.5196 35.1053 27.2652 35 27 35C26.2043 35 25.4413 34.6839 24.8787 34.1213C24.3161 33.5587 24 32.7956 24 32C24 31.2043 24.3161 30.4413 24.8787 29.8787C25.4413 29.3161 26.2043 29 27 29C27.2652 29 27.5196 28.8946 27.7071 28.7071C27.8946 28.5196 28 28.2652 28 28V16C28.9305 16.0593 29.854 16.1998 30.76 16.42C30.888 16.4562 31.022 16.4665 31.1541 16.4503C31.2862 16.4341 31.4137 16.3917 31.5292 16.3256C31.6447 16.2595 31.7458 16.171 31.8267 16.0653C31.9075 15.9595 31.9664 15.8388 32 15.71C32.0601 15.4528 32.0161 15.1822 31.8774 14.9574C31.7388 14.7326 31.5168 14.5717 31.26 14.51C30.1917 14.2383 29.1002 14.0676 28 14V8.99999C31.5032 9.15877 34.9237 10.1165 38 11.8C38.1156 11.8656 38.2429 11.9079 38.3748 11.9243C38.5067 11.9408 38.6406 11.9311 38.7687 11.8958C38.8968 11.8605 39.0168 11.8003 39.1217 11.7187C39.2266 11.6371 39.3143 11.5356 39.38 11.42C39.4457 11.3044 39.4879 11.1771 39.5044 11.0452C39.5208 10.9133 39.5111 10.7794 39.4758 10.6513C39.4405 10.5231 39.3803 10.4032 39.2987 10.2983C39.2171 10.1934 39.1156 10.1056 39 10.04C34.2649 7.45888 28.8221 6.47812 23.4839 7.24407C18.1457 8.01002 13.1983 10.4816 9.38 14.29H9.32V14.35C4.65216 19.0259 2.03047 25.363 2.03047 31.97C2.03047 38.577 4.65216 44.9141 9.32 49.59V49.65H9.38C11.6894 51.9736 14.4344 53.8188 17.4579 55.08C20.4814 56.3412 23.724 56.9937 27 57C27.2652 57 27.5196 56.8946 27.7071 56.7071C27.8946 56.5196 28 56.2652 28 56C28 55.7348 27.8946 55.4804 27.7071 55.2929C27.5196 55.1053 27.2652 55 27 55ZM4 33H9C9.22804 37.0778 10.8361 40.9568 13.56 44L10.02 47.54C6.35947 43.5562 4.22691 38.4054 4 33V33ZM10 16.47L13.6 20C10.8721 23.0398 9.26655 26.9214 9.05 31H4C4.23749 25.5942 6.38072 20.4469 10.05 16.47H10ZM24.2 27.83L20.63 24.26C22.162 23.0084 24.0308 22.2393 26 22.05V27.1C25.3754 27.2295 24.7814 27.4773 24.25 27.83H24.2ZM17.8 24.26C16.2018 26.1642 15.2401 28.5212 15.05 31H11.05C11.2761 27.4525 12.6844 24.0832 15.05 21.43L17.8 24.26ZM22.8 29.26C22.459 29.7906 22.2215 30.381 22.1 31H17.05C17.2489 29.0483 18.0174 27.1981 19.26 25.68L22.8 29.26ZM15 33C15.2109 35.4829 16.1895 37.8385 17.8 39.74L15 42.58C12.6389 39.92 11.2315 36.5491 11 33H15ZM17 33H22C22.1295 33.6245 22.3773 34.2186 22.73 34.75L19.16 38.32C17.9508 36.7925 17.2202 34.9416 17.06 33H17ZM26 20.05C23.5155 20.2543 21.1579 21.2337 19.26 22.85L16.43 20C19.0832 17.6344 22.4526 16.2261 26 16V20.05ZM15 18.6L11.45 15.05C15.4321 11.3764 20.5872 9.23281 26 8.99999V14C21.9152 14.2304 18.0328 15.854 15 18.6V18.6Z" fill="#39519D"/>
<path d="M48.15 20.62C48.0265 20.6774 47.9159 20.7593 47.8252 20.8609C47.7345 20.9625 47.6655 21.0816 47.6224 21.2108C47.5793 21.34 47.5631 21.4767 47.5747 21.6124C47.5864 21.7481 47.6256 21.88 47.69 22C48.3433 23.3457 48.8624 24.7525 49.24 26.2C49.2967 26.42 49.4266 26.6142 49.6084 26.7505C49.7901 26.8868 50.0129 26.9572 50.24 26.95C50.323 26.9598 50.407 26.9598 50.49 26.95C50.6175 26.9174 50.7373 26.8599 50.8425 26.7809C50.9478 26.7018 51.0364 26.6028 51.1033 26.4895C51.1702 26.3761 51.214 26.2507 51.2323 26.1204C51.2507 25.9901 51.2431 25.8574 51.21 25.73C50.7979 24.1549 50.2318 22.6242 49.52 21.16C49.4702 21.0308 49.3942 20.9134 49.2967 20.8152C49.1992 20.7169 49.0823 20.64 48.9536 20.5892C48.8248 20.5384 48.6869 20.515 48.5485 20.5203C48.4102 20.5256 48.2745 20.5595 48.15 20.62V20.62Z" fill="#39519D"/>
<path d="M61.63 28.22C60.0636 26.9653 58.0892 26.3327 56.0853 26.4434C54.0813 26.5541 52.1887 27.4004 50.77 28.82L50.63 28.96L43.1 28.2L39.1 27.8L35.1 27.41C33.9693 27.2876 32.8333 27.5875 31.9103 28.2521C30.9873 28.9166 30.3426 29.8989 30.1 31.01H27C26.7348 31.01 26.4804 31.1154 26.2929 31.3029C26.1054 31.4904 26 31.7448 26 32.01C26 32.2752 26.1054 32.5296 26.2929 32.7171C26.4804 32.9046 26.7348 33.01 27 33.01H30.11C30.3213 33.9448 30.8132 34.7927 31.52 35.44C32.3702 36.2071 33.4749 36.6312 34.62 36.63H35.08L39.08 36.24L43.08 35.84L50.63 35L50.77 35.14C52.1887 36.5596 54.0813 37.4059 56.0853 37.5166C58.0892 37.6273 60.0636 36.9947 61.63 35.74C61.8227 35.5829 61.95 35.3596 61.987 35.1136C62.024 34.8677 61.968 34.6169 61.83 34.41L60.2 32L61.83 29.55C61.968 29.3431 62.024 29.0923 61.987 28.8464C61.95 28.6004 61.8227 28.3771 61.63 28.22ZM59.63 29.22L58.46 31H52V30.41L52.18 30.23C53.1402 29.2716 54.39 28.657 55.7353 28.4816C57.0806 28.3062 58.4461 28.5798 59.62 29.26L59.63 29.22ZM50 33.09L44 33.69V30.31L50 30.91V33.09ZM36 34.49V29.49L38 29.69V34.27L36 34.49ZM40 34.09V29.91L41.17 30.02L42 30.11V33.89L41.17 33.98L40 34.09ZM32 32C31.9989 31.6343 32.0749 31.2726 32.2231 30.9383C32.3713 30.604 32.5883 30.3047 32.86 30.06C33.1829 29.7665 33.5752 29.56 34 29.46V34.53C33.5759 34.4338 33.1835 34.2307 32.86 33.94C32.5883 33.6953 32.3713 33.396 32.2231 33.0617C32.0749 32.7274 31.9989 32.3657 32 32V32ZM52.18 33.77L52 33.59V33H58.46L59.62 34.74C58.4461 35.4202 57.0806 35.6938 55.7353 35.5184C54.39 35.343 53.1402 34.7284 52.18 33.77V33.77Z" fill="#39519D"/>
<path d="M34.69 16.44C34.1012 16.7023 33.5733 17.0839 33.1395 17.5607C32.7058 18.0375 32.3756 18.5991 32.17 19.21C31.8749 20.1234 31.8749 21.1066 32.17 22.02L29.45 23.55C29.3299 23.6084 29.2228 23.6903 29.1349 23.7908C29.047 23.8912 28.9801 24.0083 28.9381 24.1351C28.8962 24.2618 28.8801 24.3957 28.8907 24.5288C28.9013 24.6619 28.9385 24.7915 29 24.91C29.0877 25.0659 29.2155 25.1955 29.3703 25.2852C29.5251 25.3749 29.7011 25.4215 29.88 25.42C30.0518 25.4195 30.2205 25.3747 30.37 25.29L33.08 23.76C33.7208 24.4717 34.5661 24.9677 35.5 25.18C35.8287 25.251 36.1638 25.2879 36.5 25.29C37.4518 25.2895 38.3805 24.9962 39.16 24.45L51.94 15.45L52.12 15.5C52.8353 15.7051 53.5758 15.8095 54.32 15.81C55.9476 15.8102 57.5379 15.3225 58.8855 14.4098C60.2331 13.4971 61.2762 12.2014 61.88 10.69C61.9716 10.4579 61.9731 10.2 61.8843 9.96693C61.7955 9.73381 61.6228 9.5423 61.4 9.42999L58.83 8.09999L59.05 5.16999C59.0681 4.92022 58.9919 4.67273 58.8364 4.47645C58.6808 4.28018 58.4573 4.1494 58.21 4.10999C56.2253 3.787 54.1913 4.21004 52.5 5.29759C50.8086 6.38513 49.5797 8.06021 49.05 9.99999V10.18L34.69 16.44ZM50 13.11L50.53 14.11L45.6 17.58L43.94 14.58L49.46 12.16L50 13.11ZM40.21 16.2L42.05 15.39L43.91 18.69L42.27 19.85L40.21 16.2ZM38.37 17L40.62 21L39 22.17L36.55 17.82L38.37 17ZM36 23.23C35.6416 23.1576 35.3023 23.0107 35.0043 22.7988C34.7063 22.5869 34.4561 22.3148 34.27 22C34.0877 21.6812 33.9756 21.3272 33.9411 20.9616C33.9066 20.596 33.9505 20.2272 34.07 19.88C34.2066 19.4687 34.4479 19.1 34.77 18.81L37.26 23.22C36.847 23.325 36.4147 23.3284 36 23.23ZM52.73 13.58L52.49 13.51L52.18 13L57.81 9.81999L59.67 10.77C58.9828 11.941 57.9274 12.8516 56.6684 13.3599C55.4094 13.8682 54.0176 13.9456 52.71 13.58H52.73ZM56.9 5.99999H57L56.85 8.07999L51.2 11.26L50.91 10.75L51 10.5C51.3563 9.20811 52.1262 8.0686 53.1918 7.25589C54.2573 6.44317 55.5599 6.00203 56.9 5.99999V5.99999Z" fill="#39519D"/>
<path d="M45.53 51.2L45.35 51.27L35.16 46.08L35 46L31.42 44.18C30.8454 43.8909 30.2166 43.7255 29.5741 43.6945C28.9316 43.6635 28.2898 43.7675 27.69 44C26.7999 44.3486 26.0364 44.9588 25.5 45.75L22.6 44.62C22.4773 44.5716 22.3462 44.5479 22.2142 44.5503C22.0823 44.5528 21.9522 44.5814 21.8313 44.6343C21.7105 44.6873 21.6013 44.7637 21.5101 44.8591C21.4189 44.9544 21.3475 45.0669 21.3 45.19C21.2516 45.3127 21.2279 45.4438 21.2304 45.5758C21.2328 45.7077 21.2614 45.8378 21.3143 45.9587C21.3673 46.0795 21.4437 46.1887 21.5391 46.2799C21.6344 46.3711 21.7469 46.4425 21.87 46.49L24.77 47.62C24.5964 48.7361 24.8386 49.8771 25.4506 50.8264C26.0626 51.7757 27.0018 52.4674 28.09 52.77L33.81 54.37L35.81 54.94L43.09 56.94L43.17 57.12C43.8064 58.5794 44.8574 59.8199 46.1924 60.6874C47.5275 61.5549 49.0879 62.0113 50.68 62C51.5073 61.9995 52.3298 61.8748 53.12 61.63C53.3593 61.5557 53.562 61.3942 53.688 61.1775C53.8139 60.9608 53.8539 60.7048 53.8 60.46L53.17 57.59L55.57 55.9C55.7764 55.7576 55.9217 55.543 55.9773 55.2985C56.0329 55.054 55.9946 54.7976 55.87 54.58C54.8637 52.8437 53.2529 51.5391 51.3454 50.9156C49.4379 50.2921 47.3675 50.3933 45.53 51.2V51.2ZM43.66 53.88L43.26 54.88L37.46 53.26L38.69 50.1L44.06 52.84L43.66 53.88ZM31.53 46.47L32.53 46.98L33.32 47.38L31.91 51L31.65 51.67L29.71 51.13L31.53 46.47ZM36.9 49.21L35.52 52.74L33.58 52.2L34.35 50.2L35.11 48.2L35.41 48.36L36.9 49.21ZM26.9 47.34C27.0316 46.9976 27.2342 46.6869 27.4945 46.4284C27.7547 46.1699 28.0667 45.9694 28.41 45.84C28.7112 45.7297 29.0292 45.6722 29.35 45.67C29.46 45.67 29.57 45.67 29.68 45.67L27.84 50.39C27.4804 50.1326 27.1915 49.7887 27 49.39C26.8418 49.0742 26.7503 48.7292 26.7314 48.3765C26.7125 48.0237 26.7665 47.6709 26.89 47.34H26.9ZM45.06 56.34L44.96 56.11L45.17 55.56L46.85 56.21L51.19 57.91L51.64 59.91C50.2997 60.1193 48.9277 59.881 47.7365 59.2321C46.5452 58.5831 45.601 57.5596 45.05 56.32L45.06 56.34ZM51.91 56L47.56 54.3L45.89 53.65L46.1 53.1L46.33 53C47.573 52.4511 48.963 52.33 50.2822 52.6557C51.6014 52.9815 52.7753 53.7356 53.62 54.8L51.91 56Z" fill="#39519D"/>
</svg>
