<?xml version="1.0" encoding="UTF-8" standalone="no"?> <svg id="icon" xmlns="http://www.w3.org/2000/svg" viewBox="0 0 340 340"><path d="M105.871,163.859c-10.742-7.9-23.394-11.538-23.921-11.709a3.352,3.352,0,0,0-4.458,3.366V182.8A3.5,3.5,0,0,0,80,186.15a81.466,81.466,0,0,1,21.738,10.5c3.006,1.558,5.561-.512,5.561-2.828V166.678A3.5,3.5,0,0,0,105.871,163.859Z"/><path d="M80.219,83.86c1.088.246,3.838.91,4.134.91a3.5,3.5,0,0,0,.89-6.885c-2.777-.805-6.669-2.048-7.664,1.789A3.5,3.5,0,0,0,80.219,83.86Z"/><path d="M107.075,86.12c-4.223-1.79-7.022,4.453-2.839,6.4,22.528,9.993,38.595,27.354,38.754,27.527a4.127,4.127,0,0,0,4.945.218,3.411,3.411,0,0,0,.219-4.943C147.465,114.566,130.985,96.726,107.075,86.12Z"/><path d="M80.219,109.714c35.23,7.981,62.544,35.988,62.833,36.252a3.445,3.445,0,0,0,4.948.09,3.6,3.6,0,0,0,.092-4.948c-1.166-1.211-29.009-29.767-66.326-38.221a3.5,3.5,0,1,0-1.547,6.827Z"/><path d="M81.766,128.742c-4.483-.938-6.034,5.726-1.547,6.827,35.23,7.981,62.561,35.97,62.833,36.252a3.99,3.99,0,0,0,4.948.09,3.421,3.421,0,0,0,.092-4.948C146.926,165.752,119.083,137.2,81.766,128.742Z"/><path d="M122.73,172.577c-4.051-2.162-7.391,3.807-3.4,6.118,12.46,6.929,23.568,18.813,23.678,18.932.69.743,3.26,1.675,4.946.184a3.47,3.47,0,0,0,.186-4.945C147.656,192.347,136.184,180.058,122.73,172.577Z"/><path d="M122.729,198.432c-4.05-2.163-7.39,3.808-3.4,6.118,12.46,6.928,23.568,18.813,23.678,18.932.69.743,3.309,1.675,4.946.184a3.488,3.488,0,0,0,.186-4.945C147.656,218.2,136.184,205.913,122.729,198.432Z"/><path d="M331.106,110.92a171.032,171.032,0,0,0-59.119-17.049,3.5,3.5,0,0,0-.757,6.953,164.415,164.415,0,0,1,54.792,15.4V294.933c-53.551-22.613-92.908-17.669-134.832-6.355l.01,0c-13.694,1.58-12.9-8.953-12.9-8.953v-153c0-11.324,6.734-15.067,6.734-15.067h0a213.834,213.834,0,0,1,39.309-9.658,3.5,3.5,0,0,0-.99-6.932c-21.932,2.84-46.4,11.617-52.333,14.542C146.632,72.564,110.964,45.437,45.007,39.208A3.485,3.485,0,0,0,41.254,42.7v56c-5.922,1.635-20.582,6.013-32.444,12.261a3.47,3.47,0,0,0-1.832,3.077V329.888a3.586,3.586,0,0,0,4.456,3.491c86.527-24.22,145.254-3.147,158.065-.1,12.977-2.924,72.487-24.2,159.067.1,2.867.533,4.456-.931,4.456-3.469V114.041A3.491,3.491,0,0,0,331.106,110.92ZM166.022,325.11C122,312.828,77.43,309.63,13.978,325.416v-7.487c67.98-29.651,141.1-4.207,152.044-.072Zm0-14.728c-40.945-14.009-97.511-22.174-152.044-.068v-7.656c54.679-26.458,113.444-16.715,152.044.048Zm0-22.4c-4.548-6.351-36.4-56.488-117.768-62.39V46.5c59.8,5.692,98.087,35.323,117.768,68.407Zm160,37.434c-50.432-15.4-119.688-11.395-153-.288v-7.189c10.3-3.885,84.571-29.854,153-.01Zm0-15.1c-54.437-22.179-112.194-13.839-153,.153v-7.749c12.5-5.553,83.087-33.867,153-.061Z"/><path d="M216.218,50.307a3.5,3.5,0,0,0,.561,3.444l10.882,13.364-6.052,16.233a3.525,3.525,0,0,0,3.28,4.722c-.177.369,12.1-3.6,12.365-3.625l-1.194,48.621-4.794,6.419c-7.036,9.923-5.608,18.044.666,21.75-4.057,6.856-4.391,17.136,2.875,22.826l-.844,34.365c-.243,5.48,3.851,10.965,9.421,10.921h8.683a8.84,8.84,0,0,0,6.346-2.755,11.312,11.312,0,0,0,3.075-8.166c-.127-.248-1.32-58.173-1.451-58.387l5.859-7.588c4.876-5.427,8.993-17.667,1.809-23.78,3.471-7,1.611-18.169-8.885-18.889L258.2,84.445l11.341,3.472a3.524,3.524,0,0,0,4.3-4.569l-6.051-16.233,10.882-13.364a3.5,3.5,0,0,0-2.134-5.661l-16.79-2.821-9.1-13.792a3.5,3.5,0,0,0-5.841,0l-9.1,13.792L218.913,48.09A3.5,3.5,0,0,0,216.218,50.307Zm24.635,110.077a3.512,3.512,0,0,0-4.168-5.45,1.693,1.693,0,0,1-2.227-.461c-1.422-1.714-1.268-5.831,2.424-10.808l14.993-20.076s5.818,1.923.945,13.024l-7.156,8.569c-2.887,3.577,2.357,7.97,5.373,4.487l4.161-4.982s3.937,1.673.442,9.593h0l-10.333,13.382-4.842,6.269a2.776,2.776,0,0,1-4.027.665C234.113,169.2,240.687,160.226,240.853,160.384Zm2.953-57.632,7.732-4.365.337,13.71c-.134-.2-8.241,10.885-8.575,11.275ZM253.4,221.7a1.924,1.924,0,0,1-1.335.643h-8.683a1.926,1.926,0,0,1-1.335-.643,4.348,4.348,0,0,1-1.088-3.106l.619-25.19L253.6,182.513l.886,36.085A4.344,4.344,0,0,1,253.4,221.7ZM238.364,51.919a3.5,3.5,0,0,0,2.341-1.524l7.021-10.636,7.02,10.636a3.5,3.5,0,0,0,2.341,1.524L269.446,54,261.1,64.249a3.5,3.5,0,0,0-.566,3.433l4.274,11.465L248.75,74.232a3.507,3.507,0,0,0-2.049,0l-16.055,4.915,4.274-11.465a3.5,3.5,0,0,0-.566-3.433L226.006,54Z"/><path d="M210.332,182.2c-.283-4.292-6.628-4.369-6.985-.055-1.294,17.637-12.844,21.927-13.307,22.092a3.5,3.5,0,0,0,.04,6.649c.121.039,12.132,4.114,13.264,22.043.3,4.253,6.581,4.349,6.981.076,1.55-18.249,12.73-21.95,13.172-22.089,3.242-.838,3.3-5.776.075-6.7C223.073,204.052,211.356,200.051,210.332,182.2Zm-3.446,36.122a28.682,28.682,0,0,0-8.711-10.807,29.29,29.29,0,0,0,8.561-10.651,28.108,28.108,0,0,0,8.617,10.7A28.4,28.4,0,0,0,206.886,218.32Z"/><path d="M291.626,176.456c.3,4.253,6.58,4.349,6.98.076,1.55-18.249,12.732-21.951,13.173-22.09a3.506,3.506,0,0,0,.075-6.7c-.5-.161-12.216-4.162-13.241-22.015-.282-4.292-6.627-4.369-6.984-.055-1.294,17.637-12.844,21.926-13.308,22.091a3.506,3.506,0,0,0,.013,6.64C278.831,154.573,290.51,158.752,291.626,176.456Zm3.392-36.065a28.116,28.116,0,0,0,8.618,10.7,28.386,28.386,0,0,0-8.467,10.754,28.718,28.718,0,0,0-8.712-10.807A29.277,29.277,0,0,0,295.018,140.391Z"/><path d="M247.726,20.413a3.5,3.5,0,0,0,3.5-3.5v-6.9a3.5,3.5,0,0,0-7,0v6.9A3.5,3.5,0,0,0,247.726,20.413Z"/><path d="M213.692,32.514c3.486,2.994,8.039-2.118,4.649-5.235l-4.433-3.936a3.5,3.5,0,0,0-4.648,5.235Z"/><path d="M279.436,33.4a3.493,3.493,0,0,0,2.323-.882l4.432-3.936a3.5,3.5,0,0,0-4.648-5.235l-4.433,3.936A3.523,3.523,0,0,0,279.436,33.4Z"/></svg>