<?xml version="1.0" encoding="UTF-8" standalone="no"?> <svg xmlns="http://www.w3.org/2000/svg" viewBox="0 0 512 512"><g id="filled_outline" data-name="filled outline"><path d="M153.73,204.5l7.15,27.23L132,238.53,152.25,320h-81l-29.8-56.22a27.816,27.816,0,0,1,19-40.43Z" style="fill:#fed759"/><path d="M241.66,144l-40.94,66.29a40.016,40.016,0,0,1-24.87,17.92l-14.97,3.52-7.15-27.23L176,200l40-62.83Z" style="fill:#ff9ac0"/><path d="M42,238.48a14.584,14.584,0,0,1,18.9-2.81l20.34,12.91-14.71,25.2L45.27,260.34A14.6,14.6,0,0,1,42,238.48Z" style="fill:#fed759"/><circle cx="215.12" cy="92.999" r="68.563" style="fill:none;stroke:#000;stroke-linejoin:round;stroke-width:8px"/><circle cx="419.818" cy="297.697" r="68.563" style="fill:none;stroke:#000;stroke-linejoin:round;stroke-width:8px"/><path d="M326.177,473.4h0a52.643,52.643,0,0,0,80.869-7.79l81.007-120.114A85.7,85.7,0,0,0,477.6,236.971L275.846,35.216A85.7,85.7,0,0,0,167.324,24.764L47.211,105.77a52.644,52.644,0,0,0-7.79,80.87h0a52.644,52.644,0,0,0,46.593,14.579l100.62-18.2,143.16,143.16L311.6,426.8A52.644,52.644,0,0,0,326.177,473.4Z" style="fill:#83a1ff"/><circle cx="220.506" cy="216.895" r="38.09" style="fill:#5f86fe"/><circle cx="295.921" cy="292.31" r="38.09" style="fill:#5f86fe"/><rect x="272.684" y="133.48" width="121.889" height="91.417" transform="translate(224.423 -183.428) rotate(45)" style="fill:#3a69ff"/><path d="M227.933,49.714h22.854a0,0,0,0,1,0,0V76.377A11.427,11.427,0,0,1,239.36,87.8h0a11.427,11.427,0,0,1-11.427-11.427V49.714a0,0,0,0,1,0,0Z" transform="translate(118.727 -149.114) rotate(45)" style="fill:#5f86fe"/><path d="M190.879,98.195h0a11.427,11.427,0,0,1,11.427,11.427v26.663a0,0,0,0,1,0,0H179.452a0,0,0,0,1,0,0V109.622a11.427,11.427,0,0,1,11.427-11.427Z" transform="translate(138.808 -100.633) rotate(45)" style="fill:#5f86fe"/><path d="M227.933,98.195h22.854a0,0,0,0,1,0,0v26.663a11.427,11.427,0,0,1-11.427,11.427h0a11.427,11.427,0,0,1-11.427-11.427V98.195A0,0,0,0,1,227.933,98.195Z" transform="translate(491.515 30.888) rotate(135)" style="fill:#5f86fe"/><path d="M190.879,49.714h0a11.427,11.427,0,0,1,11.427,11.427V87.8a0,0,0,0,1,0,0H179.452a0,0,0,0,1,0,0V61.141A11.427,11.427,0,0,1,190.879,49.714Z" transform="translate(374.471 -17.593) rotate(135)" style="fill:#5f86fe"/><circle cx="392.884" cy="324.631" r="15.236" style="fill:#5f86fe"/><circle cx="446.751" cy="270.763" r="15.236" style="fill:#5f86fe"/><circle cx="392.884" cy="270.763" r="15.236" style="fill:#5f86fe"/><circle cx="446.751" cy="324.631" r="15.236" style="fill:#5f86fe"/><circle cx="220.506" cy="216.895" r="22.854" style="fill:#3a69ff"/><circle cx="295.921" cy="292.31" r="22.854" style="fill:#3a69ff"/><path d="M234.5,484.336,219.75,474.5V392.858a50.623,50.623,0,0,0-21.594-41.473L152.25,320h-81L91.5,393.5,32.643,464.129A37.284,37.284,0,0,0,24,488H78.144a2,2,0,0,0,1.11-3.664L64.5,474.5l47.659-47.659a50.625,50.625,0,0,0,13.532-47.181L119.228,352h17.854l42.168,34.75V488h54.144A2,2,0,0,0,234.5,484.336Z" style="fill:#1b53a6"/><path d="M76,224V183.156L92,183v41a8,8,0,0,1-8,8h0A8,8,0,0,1,76,224Z" style="fill:#ffb3d0"/><path d="M80,192H92a0,0,0,0,1,0,0v24a0,0,0,0,1,0,0h0a12,12,0,0,1-12-12V192A0,0,0,0,1,80,192Z" style="fill:#ffb3d0"/><path d="M76,175.75h24.375V199.5a10,10,0,0,1-10,10h0A14.375,14.375,0,0,1,76,195.125Z" style="fill:#ffb3d0"/><path d="M112,162v6a10,10,0,0,1-10,10H84a13.542,13.542,0,0,1-11.913,13.443L68,191.937V174a12,12,0,0,1,12-12Z" style="fill:#1b53a6"/><circle cx="75.188" cy="191.937" r="7.187" style="fill:#ffb3d0"/><path d="M223.03,272.36a4.005,4.005,0,0,1-3.03,4.86l-93.89,20.57a39.975,39.975,0,0,1-29.93-5.27L66.53,273.78l14.71-25.2,35.93,22.8,68.84-16.11,3.71-6.16a1.993,1.993,0,0,1,3.31-.17l3,3.99,17.19-4.03a4,4,0,0,1,4.8,2.95Z" style="fill:#ffb3d0"/><path d="M163.811,41.689a72.563,72.563,0,1,0,102.618,0A72.644,72.644,0,0,0,163.811,41.689Zm96.961,96.963a64.533,64.533,0,1,1,0-91.3A64.634,64.634,0,0,1,260.772,138.652Z"/><path d="M368.509,349.007a72.562,72.562,0,1,0,0-102.619A72.333,72.333,0,0,0,368.509,349.007Zm51.308-115.842a64.533,64.533,0,1,1-45.652,18.88A64.362,64.362,0,0,1,419.817,233.165Z"/><path d="M480.428,234.142,278.678,32.392A89.868,89.868,0,0,0,165.084,21.443L44.974,102.454a56.641,56.641,0,0,0,9.458,99.067,4,4,0,1,0,3.136-7.359,48.643,48.643,0,0,1-8.122-85.076l120.111-81.01a81.855,81.855,0,0,1,103.464,9.973L474.771,239.8a81.836,81.836,0,0,1,9.962,103.455l-81,120.119a48.645,48.645,0,0,1-88.2-35.862l18.191-100.619a4,4,0,0,0-1.109-3.54l-4.241-4.241a42.088,42.088,0,0,0-59.252-59.253l-16.166-16.166a42.086,42.086,0,0,0-59.25-59.25l-4.251-4.251a4,4,0,0,0-3.54-1.107l-70.71,12.79a4,4,0,0,0,.707,7.936,4.074,4.074,0,0,0,.717-.064l68.65-12.417,2.769,2.769a41.878,41.878,0,0,0-4.818,46.371,4,4,0,0,0,7.082-3.721,34.09,34.09,0,1,1,40.81,16.547,4,4,0,1,0,2.482,7.606,41.5,41.5,0,0,0,13.691-7.557l16.17,16.171a42.088,42.088,0,0,0,59.252,59.252l2.761,2.761-17.818,98.56a56.642,56.642,0,0,0,55.684,66.727q2.735,0,5.493-.264a56.461,56.461,0,0,0,41.526-24.7l81-120.119A89.85,89.85,0,0,0,480.428,234.142ZM271.815,316.416a34.091,34.091,0,1,1,48.248-.037c-.013.012-.029.02-.042.033s-.02.028-.033.041a34.089,34.089,0,0,1-48.173-.037Z"/><path d="M325.684,100.944a4,4,0,0,0-5.657,0l-64.641,64.642a4,4,0,0,0,0,5.657l86.188,86.189a4,4,0,0,0,5.656,0l64.642-64.642a4,4,0,0,0,0-5.657Zm18.718,148-80.531-80.531,58.984-58.985,80.532,80.531Z"/><path d="M244.747,43.211a4,4,0,0,0-2.828,1.172L223.065,63.237a15.429,15.429,0,0,0,0,21.817h0a15.426,15.426,0,0,0,21.817,0L263.735,66.2a4,4,0,0,0,0-5.658l-16.16-16.16A4,4,0,0,0,244.747,43.211ZM239.226,79.4a7.425,7.425,0,0,1-10.5,0h0a7.427,7.427,0,0,1,0-10.5l16.025-16.026,10.5,10.5Z"/><path d="M196.266,96.426a15.331,15.331,0,0,0-10.909,4.518L166.5,119.8a4,4,0,0,0,0,5.657l16.16,16.161a4,4,0,0,0,5.656,0l18.854-18.854a15.428,15.428,0,0,0-10.908-26.336Zm5.252,20.678L185.492,133.13l-10.5-10.5L191.014,106.6a7.427,7.427,0,0,1,10.5,10.5Z"/><path d="M244.882,100.944a15.428,15.428,0,0,0-21.817,0h0a15.428,15.428,0,0,0,0,21.817l18.854,18.854a4,4,0,0,0,5.656,0l16.16-16.161a4,4,0,0,0,0-5.657Zm-.135,32.186L228.722,117.1a7.426,7.426,0,0,1,0-10.5h0a7.427,7.427,0,0,1,10.5,0l16.024,16.024Z"/><path d="M188.32,44.383a4,4,0,0,0-5.656,0L166.5,60.543a4,4,0,0,0,0,5.658l18.853,18.853a15.427,15.427,0,0,0,21.817-21.817Zm13.2,35.014a7.425,7.425,0,0,1-10.5,0L174.989,63.372l10.5-10.5,16.026,16.026a7.429,7.429,0,0,1,0,10.5Z"/><path d="M379.282,311.029a19.237,19.237,0,1,0,27.2,0A19.108,19.108,0,0,0,379.282,311.029Zm21.547,21.547a11.231,11.231,0,1,1,0-15.89A11.25,11.25,0,0,1,400.829,332.576Z"/><path d="M446.752,290a19.237,19.237,0,1,0-13.6-5.635A19.108,19.108,0,0,0,446.752,290Zm-7.946-27.182a11.236,11.236,0,1,1-3.291,7.945A11.2,11.2,0,0,1,438.806,262.818Z"/><path d="M392.884,290a19.239,19.239,0,1,0-13.6-5.635A19.105,19.105,0,0,0,392.884,290Zm-7.946-27.182a11.236,11.236,0,1,1-3.291,7.945A11.206,11.206,0,0,1,384.938,262.818Z"/><path d="M433.149,311.029a19.237,19.237,0,1,0,27.2,0A19.256,19.256,0,0,0,433.149,311.029ZM454.7,332.576a11.231,11.231,0,1,1,0-15.89A11.247,11.247,0,0,1,454.7,332.576Z"/><path d="M220.507,243.75a26.855,26.855,0,1,0-18.989-45.844h0a26.855,26.855,0,0,0,18.989,45.843Zm-13.333-40.187h0a18.855,18.855,0,1,1,0,26.664A18.877,18.877,0,0,1,207.174,203.563Z"/><path d="M314.91,273.321a26.886,26.886,0,0,0-37.977,0h0a26.854,26.854,0,1,0,37.977,0Zm-5.656,32.321a18.855,18.855,0,1,1-26.665-26.664h0a18.854,18.854,0,1,1,26.665,26.663Z"/><path d="M242.219,484.672,223.75,472.359v-79.5a54.667,54.667,0,0,0-23.3-44.75l-44.683-31.279-5.1-20.329,70.183-15.373a8,8,0,0,0,6.06-9.713L221.9,250.9a8.025,8.025,0,0,0-9.594-5.889l-14.651,3.429-1.428-1.9a6,6,0,0,0-9.938.507l-2.843,4.72-41.567,9.727-5.015-19.995,32.591-7.671a4,4,0,1,0-1.832-7.787l-3.869.911-5.084-19.365,13.345-2.7a4,4,0,0,0-1.584-7.842L96.89,211.9a13.927,13.927,0,0,0,7.49-12.4V181.8A14.022,14.022,0,0,0,116,168v-6a4,4,0,0,0-4-4H80a16.019,16.019,0,0,0-16,16v17.94a11.2,11.2,0,0,0,8,10.717v14.28l-12.341,2.492a31.815,31.815,0,0,0-21.732,46.244L67.51,320.74l19.583,71.8-57.81,69.371A40.13,40.13,0,0,0,20,487.553V488a4,4,0,0,0,4,4H84.75a4,4,0,0,0,2.219-7.328L70.778,473.878l44.209-44.209a54.311,54.311,0,0,0,14.6-50.909L124.336,356H136.1l39.148,32.624V488a4,4,0,0,0,4,4H240a4,4,0,0,0,2.219-7.328Zm-55.3-225.505a4,4,0,0,0,2.516-1.832l2.182-3.624,1.213,1.617a4,4,0,0,0,4.111,1.493l17.194-4.024,5.011,20.516-93.89,20.566a35.8,35.8,0,0,1-26.939-4.736l-26.38-16.676,10.671-18.283,32.421,20.574a4.006,4.006,0,0,0,3.055.518ZM72,174a8.009,8.009,0,0,1,8-8h28v2a6.006,6.006,0,0,1-6,6H84a4,4,0,0,0-4,4,9.541,9.541,0,0,1-.678,3.536,11,11,0,0,0-2.883-.712,11.034,11.034,0,0,0-4.439.389Zm3.19,14.75a3.515,3.515,0,0,1,.384.027,3.026,3.026,0,0,1,1.938.994,4,4,0,0,0,5.806.158c.078-.077.147-.152.215-.23.022-.023.043-.047.065-.071A17.567,17.567,0,0,0,87.539,182H96.38v17.5a5.96,5.96,0,0,1-5.02,5.912A4,4,0,0,0,88,209.36V224a4,4,0,1,1-8,0V199.07a4,4,0,0,0-4-4,3.922,3.922,0,0,0-.446.025,3.183,3.183,0,1,1-.364-6.345ZM44.4,240.483a23.6,23.6,0,0,1,16.841-13.212l10.811-2.183A12,12,0,0,0,96,224v-3.757l54.818-11.075,5.149,19.612-24.883,5.856a4,4,0,0,0-2.964,4.867l5.972,23.81-16.2,3.79-48.032-30.48a4,4,0,0,0-4.287,6.754l10.269,6.517-10.678,18.3-7.029-4.444a4,4,0,0,0-4.276,6.763l40.177,25.4a43.732,43.732,0,0,0,23.433,6.822,44.352,44.352,0,0,0,9.492-1.034l15.889-3.48,4.27,17.037H73.642L44.974,261.887A23.6,23.6,0,0,1,44.4,240.483ZM183.25,484V386.75a4,4,0,0,0-1.439-3.073l-41.7-34.75a4,4,0,0,0-2.56-.927H119.308a4,4,0,0,0-3.9,4.9l6.383,27.66a46.36,46.36,0,0,1-12.462,43.453L62.843,470.5H44.5a4,4,0,0,0,0,8H63.289l8.25,5.5H28.2a32.13,32.13,0,0,1,7.232-16.967l59.143-70.972a4,4,0,0,0,.786-3.613l-18.872-69.2h74.5l44.873,31.412a46.662,46.662,0,0,1,19.888,38.2V470.5h-19.5a4,4,0,0,0,0,8h22.289l8.25,5.5Z"/></g></svg>
