<?xml version="1.0" encoding="UTF-8" standalone="no"?> <svg id="icons" xmlns="http://www.w3.org/2000/svg" xmlns:xlink="http://www.w3.org/1999/xlink" viewBox="0 0 500 500"><defs><linearGradient id="linear-gradient" x1="79.014" y1="284.923" x2="41.556" y2="74.581" gradientUnits="userSpaceOnUse"><stop offset="0" stop-color="#c7d3f9"/><stop offset="1" stop-color="#e7efff"/></linearGradient><linearGradient id="linear-gradient-2" x1="34.267" y1="72.582" x2="60.042" y2="339.38" gradientUnits="userSpaceOnUse"><stop offset="0" stop-color="#97a0ce"/><stop offset="1" stop-color="#797cb4"/></linearGradient><linearGradient id="linear-gradient-3" x1="174.095" y1="387.771" x2="305.664" y2="470.226" gradientUnits="userSpaceOnUse"><stop offset="0" stop-color="#ab3d56"/><stop offset="1" stop-color="#782a3e"/></linearGradient><linearGradient id="linear-gradient-4" x1="165.523" y1="250.358" x2="152.31" y2="378.793" gradientUnits="userSpaceOnUse"><stop offset="0" stop-color="#ffd3d1"/><stop offset="1" stop-color="#f59f9b"/></linearGradient><linearGradient id="linear-gradient-5" x1="211.5" y1="328.086" x2="343.069" y2="410.541" xlink:href="#linear-gradient-3"/><linearGradient id="linear-gradient-6" x1="287.243" y1="372.982" x2="296.131" y2="456.639" gradientUnits="userSpaceOnUse"><stop offset="0" stop-color="#e35a8b"/><stop offset="1" stop-color="#db4373"/></linearGradient><linearGradient id="linear-gradient-7" x1="167.737" y1="397.916" x2="299.306" y2="480.37" xlink:href="#linear-gradient-3"/><linearGradient id="linear-gradient-8" x1="214.239" y1="364.824" x2="224.524" y2="461.626" xlink:href="#linear-gradient-6"/><linearGradient id="linear-gradient-9" x1="193.394" y1="356.976" x2="324.963" y2="439.431" xlink:href="#linear-gradient-3"/><linearGradient id="linear-gradient-10" x1="206.281" y1="343.69" x2="276.288" y2="397.225" gradientUnits="userSpaceOnUse"><stop offset="0" stop-color="#ffe0a6"/><stop offset="1" stop-color="#ffae85"/></linearGradient><linearGradient id="linear-gradient-11" x1="247.906" y1="179.532" x2="278.847" y2="473.188" gradientUnits="userSpaceOnUse"><stop offset="0" stop-color="#ef7554"/><stop offset="1" stop-color="#dd6049"/></linearGradient><linearGradient id="linear-gradient-12" x1="238.839" y1="289.306" x2="300.106" y2="347.695" xlink:href="#linear-gradient-10"/><linearGradient id="linear-gradient-13" x1="247.102" y1="179.617" x2="278.042" y2="473.272" xlink:href="#linear-gradient-11"/><linearGradient id="linear-gradient-14" x1="239.022" y1="241.103" x2="274.616" y2="321.875" xlink:href="#linear-gradient-10"/><linearGradient id="linear-gradient-15" x1="312.764" y1="172.698" x2="343.705" y2="466.354" xlink:href="#linear-gradient-11"/><linearGradient id="linear-gradient-16" x1="241.934" y1="180.161" x2="272.874" y2="473.817" xlink:href="#linear-gradient-11"/><linearGradient id="linear-gradient-17" x1="345.385" y1="246.512" x2="383.238" y2="304.028" xlink:href="#linear-gradient-4"/><linearGradient id="linear-gradient-18" x1="300.261" y1="172.391" x2="268.649" y2="238.527" xlink:href="#linear-gradient-6"/><linearGradient id="linear-gradient-19" x1="191.701" y1="250" x2="303.74" y2="210.47" xlink:href="#linear-gradient-3"/><linearGradient id="linear-gradient-20" x1="123.054" y1="229.443" x2="259.336" y2="229.443" xlink:href="#linear-gradient-6"/><linearGradient id="linear-gradient-21" x1="179.972" y1="216.756" x2="292.011" y2="177.226" xlink:href="#linear-gradient-3"/><linearGradient id="linear-gradient-22" x1="328.675" y1="238.1" x2="375.708" y2="238.1" xlink:href="#linear-gradient-10"/><linearGradient id="linear-gradient-23" x1="345.559" y1="167.137" x2="378.041" y2="475.422" xlink:href="#linear-gradient-11"/><linearGradient id="linear-gradient-24" x1="236.442" y1="256.795" x2="296.195" y2="311.951" xlink:href="#linear-gradient-3"/><linearGradient id="linear-gradient-25" x1="248.117" y1="79.447" x2="414.243" y2="126.557" xlink:href="#linear-gradient-6"/><linearGradient id="linear-gradient-26" x1="237.707" y1="140.612" x2="237.707" y2="209.475" gradientUnits="userSpaceOnUse"><stop offset="0" stop-color="#4f4a6b"/><stop offset="1" stop-color="#322d47"/></linearGradient><linearGradient id="linear-gradient-27" x1="243.981" y1="113.565" x2="243.981" y2="210.123" xlink:href="#linear-gradient-10"/><linearGradient id="linear-gradient-28" x1="270.807" y1="177.119" x2="301.747" y2="470.775" xlink:href="#linear-gradient-11"/><linearGradient id="linear-gradient-29" x1="272.62" y1="86.19" x2="394.887" y2="59.291" xlink:href="#linear-gradient-6"/><linearGradient id="linear-gradient-30" x1="234.156" y1="29.695" x2="224.922" y2="109.109" xlink:href="#linear-gradient-3"/><linearGradient id="linear-gradient-31" x1="103.632" y1="335.349" x2="98.59" y2="385.352" xlink:href="#linear-gradient-10"/><linearGradient id="linear-gradient-32" x1="83.381" y1="196.867" x2="114.322" y2="490.523" xlink:href="#linear-gradient-11"/><linearGradient id="linear-gradient-33" x1="81.003" y1="493.327" x2="59.6" y2="447.026" xlink:href="#linear-gradient-26"/><linearGradient id="linear-gradient-34" x1="18.478" y1="342.442" x2="66.394" y2="376.604" xlink:href="#linear-gradient-10"/><linearGradient id="linear-gradient-35" x1="47.535" y1="200.644" x2="78.476" y2="494.3" gradientUnits="userSpaceOnUse"><stop offset="0" stop-color="#f5916b"/><stop offset="1" stop-color="#e36e45"/></linearGradient><linearGradient id="linear-gradient-36" x1="37.038" y1="379.817" x2="70.593" y2="439.593" xlink:href="#linear-gradient-4"/><linearGradient id="linear-gradient-37" x1="450.357" y1="272.101" x2="402.609" y2="371.27" gradientUnits="userSpaceOnUse"><stop offset="0" stop-color="#979eff"/><stop offset="1" stop-color="#c4d1ff"/></linearGradient><linearGradient id="linear-gradient-38" x1="383.216" y1="365.171" x2="397.537" y2="443.04" gradientUnits="userSpaceOnUse"><stop offset="0" stop-color="#7873d3"/><stop offset="1" stop-color="#505bc1"/></linearGradient><linearGradient id="linear-gradient-39" x1="408.996" y1="322.694" x2="445.425" y2="238.375" xlink:href="#linear-gradient-10"/><linearGradient id="linear-gradient-40" x1="336.9" y1="170.155" x2="367.84" y2="463.811" xlink:href="#linear-gradient-11"/><linearGradient id="linear-gradient-41" x1="479.913" y1="275.372" x2="423.207" y2="401.143" xlink:href="#linear-gradient-10"/><linearGradient id="linear-gradient-42" x1="396.304" y1="163.896" x2="427.245" y2="457.552" xlink:href="#linear-gradient-11"/><linearGradient id="linear-gradient-43" x1="115.696" y1="31.373" x2="182.826" y2="162.437" xlink:href="#linear-gradient-37"/><linearGradient id="linear-gradient-44" x1="497.999" y1="74.667" x2="395.817" y2="183.236" xlink:href="#linear-gradient-37"/><linearGradient id="linear-gradient-45" x1="211.844" y1="183.332" x2="242.785" y2="476.987" xlink:href="#linear-gradient-11"/><linearGradient id="linear-gradient-46" x1="289.139" y1="187.668" x2="337.976" y2="227.626" xlink:href="#linear-gradient-10"/><linearGradient id="linear-gradient-47" x1="348.743" y1="168.963" x2="379.65" y2="462.3" xlink:href="#linear-gradient-11"/></defs><path d="M76.9,253.651c11.26-42.788,30.374-117.863-12.4-206.628a4.813,4.813,0,0,0-8.666,0c-42.778,88.765-23.664,163.84-12.4,206.628,4.7,17.868,3.7,35.508.834,50.18,5.5,15.724,25.681,20.77,34.822,12.468C74.335,299.851,70.766,276.945,76.9,253.651Z" style="fill:url(#linear-gradient)"/><path d="M88.519,340.59a132.985,132.985,0,0,1-9.44-24.291L44.255,303.831A141.364,141.364,0,0,1,31.8,340.59c7.9,14.412,28.36,16.742,28.36,16.742S80.615,355,88.519,340.59Z" style="fill:url(#linear-gradient-2)"/><path d="M226.7,447.792s.63,23.871,23.957,33.284a8.243,8.243,0,0,0,6.375-.076c6.66-2.892,21.382-11.8,24.182-34.827l-7.663-42.144H235.382S228.043,417.033,226.7,447.792Z" style="fill:url(#linear-gradient-3)"/><path d="M146.719,241.156s-32.961,46.784-5.028,82.051c0,0-15.084-2.722-30.726,22.418L130.687,397s42.843-6.3,68.919-42.881l-17.343-112.96Z" style="fill:url(#linear-gradient-4)"/><path d="M117.562,367.682l11.28,37.719s48.966-8.392,75.042-44.978l-13.953-76.971c-13.8-2.975-31.438-6.172-31.438-6.172-4.991,29.538,14.182,38.874,14.182,38.874.352,22.744,9.994,30.1,9.994,30.1-2.969,11.891-13.4,20.328-22.1,25.485a13.121,13.121,0,0,1-17.768-4.23c-9.109-14.5-23.715-21.255-23.715-21.255Z" style="fill:#e07a86"/><path d="M302.7,384.563a264.908,264.908,0,0,0,7.9,36.621,38.089,38.089,0,0,0,32.022,27.184l10.206,1.221c26.523-47,6.467-60.8-12.8-83.348Z" style="fill:url(#linear-gradient-5)"/><path d="M160.216,257.489l11.009-2.7,9.221-13.632H146.719A102.825,102.825,0,0,0,136.54,260.8C141.416,258.891,149.052,257.1,160.216,257.489Z" style="fill:#e07a86"/><path d="M261.631,408.52s14.506,12.284,12.058,34.905c-1.928,17.814,14.886,26.092,22.95,29.012A8.108,8.108,0,0,0,304.3,471.3c26.292-20.167,22.033-40.3,7.3-70.925C311.6,400.374,273.039,391.979,261.631,408.52Z" style="fill:url(#linear-gradient-6)"/><path d="M223.036,384.331a328.344,328.344,0,0,1-14.609,34.152c-4.518,9.08-19.926,21.471-29.482,28.579a8.122,8.122,0,0,1-12.345-3.378c-6.59-15.791-14.645-48.9,20.161-71.092C197.142,369.725,209.884,376.216,223.036,384.331Z" style="fill:url(#linear-gradient-7)"/><path d="M246.378,408.637s-4.23,15.569-10.426,37.413c-3.677,12.96-16.75,19.886-25.095,23.072a8.125,8.125,0,0,1-10.433-4.508c-5.9-14.476-14.919-49.72,18.724-81.541C219.148,383.073,241.508,390.454,246.378,408.637Z" style="fill:url(#linear-gradient-8)"/><path d="M273.232,420.963c18.138-13.154,26.107-18.041,38.363-20.586a180.508,180.508,0,0,0-8.9-15.814s-24.262,6.068-37.339,19.466H244.679c-5.008-10.627-15.941-16.783-21.742-19.418.064-.178.1-.28.1-.28-13.152-8.115-25.894-14.606-36.275-11.739a70.174,70.174,0,0,0-8.167,6.053c4.964.053,20.372,2.116,35.791,23.815C233.109,428.812,250.86,437.187,273.232,420.963Z" style="fill:url(#linear-gradient-9)"/><path d="M193.985,355.344a42.068,42.068,0,0,1-7.224,17.248c.338-.3,13.96,2.915,25.575,13.757,3.176,1.088,5.31,3.024,5.813,6.287,4.508,6.057,7.52,11.186,15.533,18,11.68,10.009,28.38,6.968,38.319-4.059,28.75-25.77,17.885-61.575-17.591-61.2Z" style="fill:url(#linear-gradient-10)"/><path d="M328.172,333.217l-134.636-1.27a60.443,60.443,0,0,1,.447,23.4,66.492,66.492,0,0,0,15.324,8.891,67.907,67.907,0,0,0,3.006,22.139,53.649,53.649,0,0,1,5.954,6.426c-.915-15.612,2.063-32.977,19.874-34.094a73.688,73.688,0,0,1,8.237.131,56.658,56.658,0,0,1,19.472,5.556c15.694,7.32,18.808,27.485,8.079,40.488A53.209,53.209,0,0,1,294.55,394c13.16-3.547,33.039-11.354,45.476-27.76C340.026,366.241,325.631,356.08,328.172,333.217Z" style="fill:url(#linear-gradient-11)"/><path d="M183.556,319.613c2.2,18.05,18.933,32.245,37.44,28a67.127,67.127,0,0,1,40.621,3.07c45.354,21.322,86.275-12.919,75.16-61.6Z" style="fill:url(#linear-gradient-12)"/><path d="M312.116,351.433c23.02-12.1,30.147-36.651,24.661-62.352L182.356,305.064a53.658,53.658,0,0,0,1.207,14.548c7.715,3.555,22.969,7.207,44.436-3.488a15.883,15.883,0,0,1,15.859.889c10.851,7.154,32.617,18.29,59.836,15.424a9.819,9.819,0,0,1,10.691,11.432A32.291,32.291,0,0,1,312.116,351.433Z" style="fill:url(#linear-gradient-13)"/><path d="M160.209,257.487c-7.5,23.815,5.939,59.559,38.51,55.5a90.885,90.885,0,0,0,22.233-6.395c13.8-10.754,26.276-7.608,37.865,4.82,79.416,35.96,81.067-26.411,79.5-69.387l-14.1-12.9Z" style="fill:url(#linear-gradient-14)"/><path d="M335.046,258.655l-6.5-2.765H304.789s8.508,5.162,6.835,19.553,4.342,21.083,10.536,27.058c0,0,5.282,6.529-4.055,15.469,16.5-10.086,20.142-38.534,20.637-57.607Z" style="fill:url(#linear-gradient-15)"/><path d="M338.613,246.764c-.137-2.979-.3-4.738-.3-4.738l-14.1-12.9-157.989,12.9a65.666,65.666,0,0,0-6.013,15.463c9.3.048,49.3,1.954,64.051,30.608a19.8,19.8,0,0,1-3.316,18.494c15.976-7.838,23.579-3.146,37.867,4.821-3.408-5.266-5.858-13.309-3.414-21.154,6.284-17.075,16.535-28.028,36.606-35.059,5.639-1.731,11.615-.386,16.608,2.561,6.554,3.706,13.555.313,19.926-1.87Z" style="fill:url(#linear-gradient-16)"/><path d="M323.881,258.4c-3.355,13.511-3.275,31.732,13.984,45.456,31.127,24.752,66.8,4.5,66.8,4.5l15.329-21.377C404.986,268.778,390.552,253.9,377.84,249Z" style="fill:url(#linear-gradient-17)"/><path d="M419.994,286.976s-11.625-31.126-43.877-54l-44.627,6.75a70.824,70.824,0,0,0-7.606,18.672l8.933,9.421a14.87,14.87,0,0,0,20.385,1.236,44.274,44.274,0,0,1,14.7-8.242c16.888-5.336,27.041,15.1,33.83,34.739a35.789,35.789,0,0,0,4.83,10.159Z" style="fill:#e07a86"/><path d="M223.006,220.05s24.614-21.811,53.726-37.056c13.678-7.326,27.871-2.994,39.924,5.933l9.629,42.987s-43.675,4.815-73.937,34.046Z" style="fill:url(#linear-gradient-18)"/><path d="M316.656,188.927c-7.16-4.66-12.741-8.385-20.792-9.374l-.008.008.009-.018a32.487,32.487,0,0,0-19.133,3.451c-29.112,15.245-53.726,37.056-53.726,37.056l29.342,45.91a107.007,107.007,0,0,1,14.978-12.007c-.519-7.738-3.687-19.6-8.208-29.541a8.447,8.447,0,0,1,3.731-10.9,85.561,85.561,0,0,0,16.831-11.887l0,.007c4.927-4.484,13.372-10.441,29.658,0a99.3,99.3,0,0,0,11.726,6.962Z" style="fill:url(#linear-gradient-19)"/><path d="M245.612,222.98c6.315,11.7,21.448,38.285,8.88,50.818a20.194,20.194,0,0,1-27.423,1.5c-15.369-12.843-46.811-33.97-90.151-26.222,0,0-15.915,3.79-13.642-13.263s28.042-27.737,28.042-27.737,4.168-20.767,26.525-16.977c.857-10.6,11.848-14.846,21.238-10.475C199.689,180.906,245.612,222.98,245.612,222.98Z" style="fill:url(#linear-gradient-20)"/><path d="M245.6,222.987c-15.234-24.922-32.844-34.491-46.52-42.36C197.364,191.9,198.37,230.248,245.6,222.987Z" style="fill:url(#linear-gradient-21)"/><path d="M328.675,245.167,338.2,255.4a10.3,10.3,0,0,0,14.391.63c5.085-4.51,12.6-9.9,21.507-12.327,4.152-12.707.37-21.6-12.469-26.155C345.006,223.39,331.774,231.257,328.675,245.167Z" style="fill:url(#linear-gradient-22)"/><path d="M365.742,209.385s-30.537,10.328-44.459,27.842l11.354,12.516s8.969-12.682,21.644-16.828c11.229-3.685,18.679-1.037,20.353,10.653,1.1-.284,2.221-.532,3.362-.717a7.534,7.534,0,0,0,5.8-10.313C380.4,224.4,374.472,213.617,365.742,209.385Z" style="fill:url(#linear-gradient-23)"/><path d="M240.641,250.175c8.616,8.982-1.936,19.531-10.915,10.915C221.109,252.108,231.662,241.56,240.641,250.175Z" style="fill:url(#linear-gradient-24)"/><path d="M404.533,114.541c-2.09-20.587-23.409-24.013-23.409-24.013,43.265,39.518-46.093,48.565-67.359-13.4a4.982,4.982,0,0,0-6.5-2.375l-9.908,4.378L303.9,63.3a5.028,5.028,0,0,0-.449-4.661C278.338,19.994,250.6,18.173,250.6,18.173c-50.01,38.306-23.764,112.789-23.764,112.789l60.3,21.991c12.771-3.084,25.86-3.577,38.306.354C379.35,170.331,406.819,137.054,404.533,114.541Z" style="fill:url(#linear-gradient-25)"/><path d="M203.976,132.89s6.942,15.726-.069,25.34l15.338,49.151a20,20,0,0,0,18.462,2l33.8-54.69s-1.644-40.388-2.818-40.153S203.976,132.89,203.976,132.89Z" style="fill:url(#linear-gradient-26)"/><path d="M208.574,143.688c6.6,7.659,16.251,13.6,26.741,8.557a67.225,67.225,0,0,0,20.6-15.4,2.124,2.124,0,0,1,3.687,1.225l1.071,11.3c1.075,10.19-8.592,18.6-17.858,24.372a7.475,7.475,0,0,0-3.847,6.179l-1.257,29.469a79.145,79.145,0,0,0,34.014-15.669c11.694-13.533,14.491-41.525,10.884-79.925L255.821,85.56c-33.288-8.279-51.584,24.688-51.849,43.619A19.454,19.454,0,0,0,208.574,143.688Z" style="fill:url(#linear-gradient-27)"/><path d="M289.115,119.43a37.363,37.363,0,0,0-5.837-20.213S262.586,83.029,243.47,84.3l-4.013,28.772a28.509,28.509,0,0,1,14.13-7.757c12.671-2.682,23.69,8.266,22.9,20.932v43.3s.263,12.955-4.772,24.162c8.9-7.137,18.609-18.388,17.4-29.4Z" style="fill:url(#linear-gradient-28)"/><path d="M226.837,130.962S250.6,84.554,283.278,99.217c-21.512-30.114-41.314-37.4-55.537-37.854C227.741,61.363,211.586,97.622,226.837,130.962Z" style="fill:url(#linear-gradient-29)"/><path d="M226.837,130.962s-9.576-72,23.764-112.789c-8.236-1.619-21.422-4.731-25.13,3.953C219.717,36.226,202.818,85.627,226.837,130.962Z" style="fill:url(#linear-gradient-30)"/><path d="M62.21,377.662s18.37-27.145,50.762-35.116c0,0,17.644,8.007,24.287,27.789C132.127,404.029,96.124,416.767,68.14,401Z" style="fill:url(#linear-gradient-31)"/><path d="M68.14,401l8.535,33.588a200,200,0,0,0,45.581-15.645c18.456-8.028,20.2-33.63,15-48.6-13.071,22.313-63.809,27.971-67.008,27.925Z" style="fill:url(#linear-gradient-32)"/><path d="M64.952,473.733H55.366a8.225,8.225,0,0,1-8.225-8.225v-36.36H73.177v36.36A8.225,8.225,0,0,1,64.952,473.733Z" style="fill:url(#linear-gradient-33)"/><path d="M60.159,354.073S41.1,353.143,31.8,340.59l-9.763,14.877a27.746,27.746,0,0,0,8.84,13.9,93.493,93.493,0,0,0,37.6.624C68.387,363.912,64.905,358.81,60.159,354.073Z" style="fill:url(#linear-gradient-34)"/><path d="M60.159,354.073h0c-13.969,14.341-29.28,15.292-29.28,15.292,5.644,4.961,14.74,9.348,29.28,9.348,33.474,0,38.123-23.246,38.123-23.246L88.519,340.59C79.221,353.143,60.159,354.073,60.159,354.073Z" style="fill:url(#linear-gradient-35)"/><path d="M73.913,373.381H90.554a12.407,12.407,0,0,1,12.4,12.1l.429,17.553c-.131,14.156-17.525,16.8-25.017,5.879Z" style="fill:#e07a86"/><path d="M38.146,374.622s12.178-4.705,30.774-2.366c16.208,8.917,16.392,54.13,1.218,68.684l-28.733,3.22c-10.8.364-14.667-9.434-6.175-21.19,0,0-14.638-9.2-4.663-23.982C30.567,398.988,18.573,381.013,38.146,374.622Z" style="fill:url(#linear-gradient-36)"/><path d="M477.291,255.654a206.1,206.1,0,0,1-.857,42.954l-49.51,110.141c-27.182,4.91-47.592-10-60.489-46.9,2.056-5.986,4.525-12.236,7.461-18.752C413.02,256.267,477.291,255.654,477.291,255.654Z" style="fill:url(#linear-gradient-37)"/><path d="M378.56,469.425a211.7,211.7,0,0,0,34.617-30.1l13.747-30.579c-33.014-6.619-50.953-28.259-60.483-46.9C341.108,435.633,378.56,469.425,378.56,469.425Z" style="fill:url(#linear-gradient-38)"/><path d="M378.407,380.113c16.7-73.7,73.675-113.061,98.883-124.459-1.474-16.384-4.638-25.463-4.638-25.463-7.62,1.112-87.786,40.074-112.616,116.477C361.33,364.649,367.5,375.735,378.407,380.113Z" style="fill:url(#linear-gradient-39)"/><path d="M378.422,380.116a105.148,105.148,0,0,1-18.377-33.445c-32.152,84.938-2.406,136.906-2.406,136.906s5.377-3.41,20.919-14.155C371.664,435.344,372.629,405.671,378.422,380.116Z" style="fill:url(#linear-gradient-40)"/><path d="M458.121,367.937c10.59-26.219,15.944-49.6,18.313-69.329-23.229,17.251-63.679,54.257-67.152,104.693,4.973,10.009,18.709,12.89,26.762,6.858A239.373,239.373,0,0,0,458.121,367.937Z" style="fill:url(#linear-gradient-41)"/><path d="M436.032,410.152a91.836,91.836,0,0,1-26.743-6.85,104.822,104.822,0,0,0,3.884,36.023A224.5,224.5,0,0,0,436.032,410.152Z" style="fill:url(#linear-gradient-42)"/><path d="M168.963,95.241a77.431,77.431,0,0,0-9.123-13.057c-5.865-6.545-15.739-2.725-17.318,5.921-3.166,17.33,6.632,52.67,12.717,67.8a1.986,1.986,0,0,1-3.407,1.964C121.692,119.791,117,85.311,124.178,65.568c15.853-35.018,50.351-5.731,48.494,28.708A1.987,1.987,0,0,1,168.963,95.241Z" style="fill:url(#linear-gradient-43)"/><path d="M408.236,178.869c11.673-7.317,31.492-22.3,41.64-44.632a11.937,11.937,0,0,0-11.616-16.884,53.714,53.714,0,0,0-10.938,1.818,1.344,1.344,0,0,1-1.244-2.308A70.024,70.024,0,0,1,453.909,102.1a15.276,15.276,0,0,1,18.926,17.633c-3.827,19.248-17.545,47.519-63.475,61.555A1.347,1.347,0,0,1,408.236,178.869Z" style="fill:url(#linear-gradient-44)"/><path d="M203.907,158.23A28.448,28.448,0,0,0,215.845,172a6.49,6.49,0,0,1,3.4,5.638v29.749c-4.734-2.85-16.092-14.055-15.337-25.451Z" style="fill:url(#linear-gradient-45)"/><path d="M288.665,222.843c5.595-11.988,17.057-31.522,36.07-42.7,23.837,0,41.7,20.784,35.737,38.5-12.37,5.137-28.074,13.438-40.978,26a13.084,13.084,0,0,1-16.577,1.342l-9.837-6.822A13.112,13.112,0,0,1,288.665,222.843Z" style="fill:url(#linear-gradient-46)"/><path d="M349.544,177.348c-8.125-3.967-17.488-1.994-24.8,2.807,7.42,2.766,28.792,12.815,35.733,38.494,4.437-1.842,8.449-3.282,11.745-4.36a8.122,8.122,0,0,0,4.454-11.908C368.1,188.205,357.327,180.967,349.544,177.348Z" style="fill:url(#linear-gradient-47)"/><path d="M76.541,440.223c15.283-2.423,12.337-19.454,8.34-25.8,5.992-9.33-2-20.629-2-20.629,6.626-8.058,1.92-18.437-7.2-20.414-2.337-.484-4.591-.847-6.763-1.12.144.1,8.992,6.424,2.829,18.891,0,0,8.231,7.864.231,21.771,0,0,6.414,15.828-1.841,28.017Z" style="fill:#e07a86"/><path d="M480.156,299.062c3.292-19.933,1.083-57.506-3.964-70.105a3.742,3.742,0,0,0-1.932-2.153c-2.935-1.6-20.5,6.618-44.325,22.865a217,217,0,0,0-18.218,14.515,136.576,136.576,0,0,0-23.795-26.707c1.395-6.648-6.629-18.164-9.86-22.485a11.891,11.891,0,0,0,1.819-14.551c-9.125-15.089-20.675-22.736-28.756-26.493-13.089-6.44-26.666.6-36.929,8.941-6.962-4.525-14.685-7.607-23.03-7.341,2.647-7.232,1.429-13.222,1.7-19.979,11.424-2.107,22-1.67,31.444,1.314a96.835,96.835,0,0,0,29.174,4.87c19.191,0,31.643-7.167,38.322-12.6,26.522-21.441,19.37-56.647-9.576-62.234a95.933,95.933,0,0,0-14.414-4.774,12.831,12.831,0,0,1-2.2-24.108c2.947-1.865,10.4-1.776,9.057-7.074-1.963-5.436-8.786-.848-12.147.239C345.1,58.837,347.5,85.039,366,89.42a90.334,90.334,0,0,1,13.082,4.307c14.454,12.277,13.172,23.622-5.557,24.731-23.879.938-46.465-16.512-58.557-47.341a3.75,3.75,0,0,0-4.854-1.72l-5.721,2.528,3.965-9.591a3.748,3.748,0,0,0-.284-3.417c-27.474-44.606-64.545-50.2-82.257-44.233-2.882.9-8.771,16.388-13.14,39.174a138.793,138.793,0,0,0-.656,43.526c-9.56,12.355-15.352,32.8-9.317,44.216.906,4.553,1.158,10.33-1.826,14.421a3.891,3.891,0,0,0-.687,1.844c-.015.122-.025.244-.033.365v18.782c-9.8-4.443-22.252-.626-25.32,9.956-16.523-1.134-24.349,10.427-26.712,18.43-6.188,2.9-26.38,13.53-28.566,29.923-2.046,12.527,6.26,19.127,16.241,17.737-7,15.105-15.755,42.891-.85,67.061-6.041,1.544-15.047,6.159-24.248,19.146a83.833,83.833,0,0,0-14.928,5.546C90.125,336.628,70,300.3,80.523,254.605h0c11.337-43.081,32.438-123.27-17.04-217.946a3.774,3.774,0,0,0-5.5-1.3C6.841,128.275,28.572,212.129,39.8,254.605c10.8,41.05-9.928,81.6-11.226,84.072L18.9,353.41a3.744,3.744,0,0,0-.542,2.793c.092.462,2.175,10.282,12.308,17.807-9.67,5.894-8.407,17.9-4.457,24.9-5.4,8.709-2.518,19.238,4.054,24.872-8.519,14.445.062,25.873,13.127,23.93v17.8a11.989,11.989,0,0,0,11.975,11.975h9.586a11.989,11.989,0,0,0,11.975-11.975V443.953a16.761,16.761,0,0,0,12.991-8.735,212.11,212.11,0,0,0,33.965-12.9,33.7,33.7,0,0,0,15.68-15.65,154.038,154.038,0,0,0,20.324-7.391c-7.774,20.1,2.4,47.162,8.02,55.411a3.77,3.77,0,0,0,5.276,1.111c.426-.288,8.963-6.087,18.05-13.578.723,14.5,8.776,31.14,9.2,31.085a3.755,3.755,0,0,0,4.018,1.739c.772-.168,12.9-2.918,22.922-10.754,3.906,8.026,11.28,17,25.237,21.474a3.753,3.753,0,0,0,2.072.063A42.046,42.046,0,0,0,278.752,466.1c4.949,5.074,19.744,13.127,23.982,10.845.836-.5,19.068-11.7,23.638-30.1a42.666,42.666,0,0,0,17.463,5.445c4.315,21.895,9.818,34.522,12.9,34.927,3.076.7,6.758-3.31,23.92-14.687C436.908,434.612,472.25,365.292,480.156,299.062ZM406.139,269.32A196.9,196.9,0,0,0,371.9,312.383a51.535,51.535,0,0,1-31.7-11.466c-18.788-14.94-15.411-35.721-10.37-49.008l5.626,6.044a13.98,13.98,0,0,0,19.624.88c5.329-4.727,13.735-10.694,23.517-12.28a11.3,11.3,0,0,0,5.457-2.5A129.283,129.283,0,0,1,406.139,269.32Zm-57.133,99.231c-6.559-6.064-15.691-8.189-17.377-28.909a51.949,51.949,0,0,0,10.431-28.3,58.188,58.188,0,0,0,25.806,8.345A256.525,256.525,0,0,0,349.006,368.551ZM293.573,390.38a56.479,56.479,0,0,0-8.442,3.044,66.185,66.185,0,0,0,7.913-32.512A54.241,54.241,0,0,0,324.9,347a38.2,38.2,0,0,0,9.97,19.654C323.264,380.127,306.207,386.975,293.573,390.38ZM236.1,407.77c-20.669-15.9-20.371-42.144-17.135-56.01,13.909-3.221,28.395-3.1,41.23,2.393,8.08,3.247,16.629,6.435,25.353,6.841.6,27.125-19.139,45.453-20.439,46.627A22.49,22.49,0,0,1,236.1,407.77ZM165.913,251.79c20.624,2.289,40.561,11.188,58.751,26.388a23.545,23.545,0,0,0,10.306,4.968,30.419,30.419,0,0,0,3.422,15.861,30.785,30.785,0,0,0-15.445,2.622,91.377,91.377,0,0,1-24.755,7.646C163.289,312.43,156.668,272.777,165.913,251.79Zm91.27,24.62a21.371,21.371,0,0,0,5.971-14.828,124.682,124.682,0,0,1,30.86-17.206l6.766,4.692c7.423,5.265,17.356,3.267,23.168-3.475l.244.262c-4.757,11.065-11.708,34.576,3.863,53.594-5.027,11.875-12.319,17.925-22.279,18.449-22.583,1.191-41.536-7.11-53.5-14.321a22.625,22.625,0,0,1-9.824-20.033A23.95,23.95,0,0,0,257.183,276.41ZM199.244,316.7a98.853,98.853,0,0,0,26.812-8.247,23.825,23.825,0,0,1,22.2,1.459c12.352,7.826,35.444,17.04,57.916,15.474,12.067-.634,21.293-7.428,27.5-20.171.355.31.725.617,1.095.923,1.53,31.124-30.536,55.171-60.072,45.293-19.027-7.1-32.576-12.4-53.787-7.634-18.677,4.228-32.305-9.534-34.112-27.4A37.811,37.811,0,0,0,199.244,316.7Zm-.661,31.445a34.124,34.124,0,0,0,12.668,3.755,76.35,76.35,0,0,0-.25,28.434,61.253,61.253,0,0,0-18.3-10.114A51.233,51.233,0,0,0,198.583,348.146Zm181.562-110.92a3.828,3.828,0,0,1-2.749,1.924c-11.557,1.873-21.221,8.686-27.294,14.072a6.523,6.523,0,0,1-9.157-.38l-11.291-12.126c14.653-11.643,31.245-18.589,41.629-22.158a57.839,57.839,0,0,1,9.048,15.423A3.671,3.671,0,0,1,380.145,237.226ZM331.317,180.9a19.5,19.5,0,0,1,16.646-.147c7.136,3.319,17.352,10.1,25.5,23.574a4.4,4.4,0,0,1-2.412,6.4c-11.347,3.715-31.977,11.935-49.319,26.808-5.141,4.587-9.271,9.952-16.678,5.373l-9.837-6.822a9.342,9.342,0,0,1-3.154-11.654C297.635,212.492,310.143,190.962,331.317,180.9Zm-26.08,5.489c1,.53,2.02,1.1,3.065,1.714-11.541,11.175-19,24.512-23.035,33.159a16.81,16.81,0,0,0,2.149,17.7,132.57,132.57,0,0,0-25.17,13.955,97.69,97.69,0,0,0-4.461-13.466,7.555,7.555,0,0,1,3.41-8.008c5.693-3.446,14.311-10.031,23.038-21.827a3.75,3.75,0,0,0-6.029-4.461c-8,10.814-15.777,16.775-20.893,19.872a14.678,14.678,0,0,0-4.228,3.89,115.281,115.281,0,0,0-10.214-16.8c9.119-2.306,29.705-9.411,43.783-28.6A28.685,28.685,0,0,1,305.237,186.384Zm-97.58-15.931a29.118,29.118,0,0,0,7.838,5.587v23.179C206.217,189.909,207.678,182.5,207.657,170.453ZM223,205.236V173.568a3.75,3.75,0,0,0-2.442-3.514c-7.147-2.661-10.943-8.674-12.4-11.534a21.2,21.2,0,0,0,2.411-7.69c15.265,14.007,31.29,4.719,45.636-8.888l.738,7.777c1.282,8.455-10.391,18.376-19.269,22.39a3.746,3.746,0,0,0-2.263,3.284l-1.332,31.215A16.2,16.2,0,0,1,223,205.236Zm77.688-143.97-6.8,16.437a3.775,3.775,0,0,0,4.982,4.862l11-4.862c22.862,60.95,96.966,58.516,85.171,24.331,11.06,11.758,5.281,30.749-7.972,41.3-8.432,6.861-27.507,16.817-60.5,6.4-10.25-3.236-21.576-3.826-33.7-1.776V119.43a40.968,40.968,0,0,0-6.433-22.243,3.788,3.788,0,0,0-2.172-1.575C255.4,89.08,237.922,106.04,229.6,118.261c-1-21.546.014-66.8,22.586-96.054,4.151.824,14.832,3.862,27.309,14.388a50.834,50.834,0,0,0-12.457,20.187c-1.3,4.727,5.7,6.819,7.2,2.11a43.874,43.874,0,0,1,10.805-17.223A115.726,115.726,0,0,1,300.683,61.266ZM229.951,21.175c3.843-1.2,8.413-1.363,14.045-.5-18.856,26.762-22.318,63.21-22.245,86.889C211.273,67.473,226.616,28.834,229.951,21.175ZM207.7,129.536a56.639,56.639,0,0,1,6.373-21.751,108.111,108.111,0,0,0,9.447,24.932,3.773,3.773,0,0,0,6.157.676c1.68-2.353,13.929-37.456,51.223-30.832a33.6,33.6,0,0,1,4.461,16.869v44.879c1.736,21.413-34.874,39.126-43.7,40.341l1.138-26.662a53.146,53.146,0,0,0,17.332-14.532,20.112,20.112,0,0,0,4.271-14.445l-1.543-16.27a3.775,3.775,0,0,0-6.656-2,64.926,64.926,0,0,1-22.494,18.112c-9.637,4.665-18.926-2.546-23.916-9.925a46.244,46.244,0,0,0-2.1-6.875A15.492,15.492,0,0,1,207.7,129.536Zm-79.2,114.7c-1.895-1.73-1.87-5.262-1.516-7.92,1.959-14.693,25.526-24.671,25.761-24.77a3.748,3.748,0,0,0,2.24-2.726c-.013-.772,4.123-17.4,22.515-14a350.243,350.243,0,0,1,32.656,25.86c3.71,3.231,8.629-2.214,5.014-5.577a352.824,352.824,0,0,0-33.064-26.22c3.061-7.946,12.054-7.4,18.288-3.236a28.736,28.736,0,0,0,4.643,12.5c9.779,13.322,18.04,17.733,29.883,15.955,7.21,8.991,13.146,20.441,17.409,32.121,3.728,8.991,5.138,19.873-.538,24.969a16.5,16.5,0,0,1-22.326,1.236c-28.236-23.59-60.54-32.943-93.406-27C134.676,245.745,130.606,246.145,128.509,244.232ZM47.049,252.7c-10.493-39.871-29.543-112.265,9.36-198.058v66.8a3.75,3.75,0,0,0,7.5,0v-66.8c38.9,85.792,19.853,158.187,9.361,198.059h0c-10.475,39.8,6.09,77.8,10.792,87.4-5.873,6.4-14.983,8.83-20.153,9.726V169.8a3.75,3.75,0,0,0-7.5,0V349.837c-5.164-.884-14.26-3.3-20.153-9.736C40.957,330.5,57.523,292.5,47.049,252.7ZM26.113,356.09l5.789-8.823c10.279,11.782,27,13.727,28.257,13.815,1.253-.087,17.979-2.034,28.257-13.815l5.789,8.822c-1.047,3.029-4.468,10.292-13.988,14.871-16.1-5.765-37.28-2.041-41.343-.519C30.884,366.118,26.888,358.916,26.113,356.09Zm61.233,37.848a15.867,15.867,0,0,0-.07-16.807h3.278a8.606,8.606,0,0,1,8.654,8.445l.429,17.553a8.688,8.688,0,0,1-9.546,8.839C92.275,404.7,89.285,397.509,87.346,393.938Zm-17.919,71.57a4.481,4.481,0,0,1-4.475,4.475H55.366a4.481,4.481,0,0,1-4.475-4.475V446.871l18.536-2.078Zm14.93-37.564a9.181,9.181,0,0,1-8.233,8.552l-35.137,3.938c-9.547.153-7.124-9.592-2.681-15.318a3.765,3.765,0,0,0-1.064-5.31c-4.711-3.086-9.569-10.5-3.566-18.72a3.749,3.749,0,0,0,.011-4.179c-.045-.067-4.417-6.849-2.548-12.246,2.387-6.277,12.636-8.912,27.555-9.3a80.074,80.074,0,0,1,16.228,1.688c5.542,1.063,9.035,7.149,6.438,12.187-14.218-4.546-30.18-.149-30.9.054a3.75,3.75,0,0,0,2.033,7.22c.16-.045,15.614-4.271,27.879.319,1.277,2.154,4.2,7.938,2.446,13.256-14.621-2.875-29.963,1.9-30.653,2.122a3.758,3.758,0,0,0,1.137,7.324c1.479.035,14.947-4.929,29.032-1.882A22.134,22.134,0,0,1,84.357,427.944Zm36.271-12.383a206.283,206.283,0,0,1-28.759,11.267,28.925,28.925,0,0,0-.945-7.3c8.787.287,16.659-7.761,16.211-16.587l-.429-17.553A16.038,16.038,0,0,0,94.153,370.04a30.73,30.73,0,0,0,7.806-13.837c.516-1.784-1.154-3.66-2.021-5.047a76.158,76.158,0,0,1,12.6-4.629c5.58,2.992,28.937,17.686,22.272,50.96A25.9,25.9,0,0,1,120.628,415.561Zm44.361-27.1a143.454,143.454,0,0,1-22.639,9.518c6.241-33.517-14.839-50.854-23.9-56.619,12.161-15.77,22.12-14.531,22.622-14.456.1.017,10.237,1.792,15.489,10.148,2.7,4.133,8.9.217,6.35-3.991-5.685-9.045-15.3-12.266-19.055-13.215-17.749-23.618-7.211-52.557.942-68.094a98.471,98.471,0,0,1,13.352-.508c-7.067,17.5-5.155,51.417,20.741,62.709,1.111,10.2,4.325,21.921,12.234,28.894.265,7.474-.778,18.106-7.036,27.008A62.2,62.2,0,0,0,165.12,388.41C165.077,388.43,165.032,388.44,164.989,388.463Zm7.363,58.762c-12.408-23.631-11.517-54.088,15.2-70.666,2.654.435,12.692,4,21.424,11.825-12.924,15.385-17.24,31.087-17.9,44.118C184.161,438.6,176.6,444.194,172.352,447.225Zm26.61-3.063c-2.214-18.5,2.931-35.435,15.282-50.382,6.994,9.284,14.1,20.288,25.535,24.715-7.954,25.643-5.05,38.944-34.2,48.472A74.07,74.07,0,0,1,198.962,444.162ZM253.8,478.255a33.649,33.649,0,0,1-20.669-19.426,30.929,30.929,0,0,0,6.425-11.756c3.1-10.918,5.7-20.261,7.509-26.8a29.563,29.563,0,0,0,16.984-3.015c11.857,18.085.838,28.09,9.533,42.48A35.348,35.348,0,0,1,253.8,478.255Zm46.346-8.586c-5.632-1.682-24.593-8.654-22.733-25.841a46.515,46.515,0,0,0-7.138-30.743c12.675-11.956,18-13.339,34.22-18.26,15.115,23.934,15.369,45.353,15.425,45.818C318.623,455.325,304.614,466.771,300.15,469.669Zm27.183-31.089c-.382-6.04-2.63-25.3-15.745-46.557,10.169-4.423,20.78-10.946,29.038-20.565,2.141,1.672,4.283,3.394,6.339,5.179-6.6,28.683-6.411,50.571-4.29,67.948A34.227,34.227,0,0,1,327.333,438.58ZM359.148,478.1c-15.474-41.215-15.635-82.773,10.774-145.517,28.054-62.443,85.151-90.748,100.273-97.33a131.809,131.809,0,0,1,3.105,18.124c-75.446,37.654-118.343,125.2-98.9,214.355C366.941,472.879,362.058,476.168,359.148,478.1Zm22-15.135c-18.6-86,28.09-169.029,92.809-201.509a205.905,205.905,0,0,1-1.076,35.133c-41.166,29.264-80.736,86.256-63.876,141.68A208.808,208.808,0,0,1,381.148,462.967Zm33.95-31.393c-12.357-57.03,26.694-100.5,56.347-124.37C464.484,350.837,444.7,398.226,415.1,431.574Z" style="fill:#2b2a3a"/><path d="M150.471,82.945a6.016,6.016,0,0,1,6.577,1.741c3.86,4.308,7.87,10.514,11.918,18.447,1.549,3.311,6.865,2.283,7.074-1.364,4.023-34.167-18.45-63.258-41.9-54.009a22.992,22.992,0,0,0-13.656,17.151c-4.429,24.874-1.508,63.456,37.556,106.005,2.883,3.171,8.11-.446,6.09-4.265-.208-.4-20.79-40.523-17.873-78.257A6.088,6.088,0,0,1,150.471,82.945Zm-3.115,62.5C125.808,113.5,124.45,85.435,127.87,66.225a15.517,15.517,0,0,1,9.221-11.568c16.89-6.731,31.044,16.92,31.6,32.986-4.9-7.612-10.9-15.1-20.623-11.8a13.558,13.558,0,0,0-9.28,11.974C137.169,108.7,142.135,129.818,147.356,145.442Z" style="fill:#2b2a3a"/><path d="M470.9,103.037a18.976,18.976,0,0,0-17.946-4.558c-21.808,5.767-33.771,19.823-34.269,20.418a3.763,3.763,0,0,0,4.471,5.8,43,43,0,0,1,15.358-3.6,8.053,8.053,0,0,1,7.222,3.481,8.18,8.18,0,0,1,.728,8.113c-14.176,31.191-48.693,47.828-49.04,47.992a3.75,3.75,0,0,0,2.461,7.041c39.571-9.586,68.453-29.644,76.632-67.254A18.772,18.772,0,0,0,470.9,103.037Zm-1.74,15.968c-3.389,17.05-14.073,38.3-44,52.284,10.2-8.491,21.235-20.322,28.132-35.5a15.732,15.732,0,0,0-16.713-22.068,65.916,65.916,0,0,1,18.293-7.994C462.706,103.376,471.01,111,469.156,119.005Z" style="fill:#2b2a3a"/><path d="M112.438,137.839a3.75,3.75,0,0,0-7.057,2.538c.281.786,7.141,19.434,27.386,35.823,3.864,3.029,8.507-2.651,4.718-5.83C119.016,155.419,112.541,138.121,112.438,137.839Z" style="fill:#2b2a3a"/><path d="M194.252,98.371a3.754,3.754,0,0,0,4.065-3.405c1.453-16.475-4.585-35.762-4.843-36.574a3.75,3.75,0,0,0-7.15,2.265c.059.185,5.842,18.69,4.522,33.65A3.749,3.749,0,0,0,194.252,98.371Z" style="fill:#2b2a3a"/><path d="M400.512,39.953l-3.12.874c-4.742,1.421-2.716,8.481,2.023,7.222l3.121-.875C407.259,45.764,405.283,38.705,400.512,39.953Z" style="fill:#2b2a3a"/><path d="M439.973,210.147c-16.27,7.952-29.4,7.684-29.642,7.674a3.754,3.754,0,0,0-3.875,3.613,3.809,3.809,0,0,0,4.221,3.891c2.991,0,16.309-.484,32.589-8.439C447.648,214.653,444.449,208.057,439.973,210.147Z" style="fill:#2b2a3a"/><path d="M174.74,229.112c-.065-.378,33.481,11.252,52.915,34.052,12.844,12.031,28.591-4.087,16.49-16.693a164.779,164.779,0,0,0-14.725-17.593c-3.458-3.51-8.771,1.545-5.431,5.173q4.192,4.4,7.747,8.659A10.591,10.591,0,0,0,224.3,249.1c-21.079-18.939-46.157-26.791-47.362-27.16a3.75,3.75,0,0,0-2.2,7.17Zm57.192,21.733c1.838-1.694,4.614-.992,6.543.6.765,1.084,1.5,2.159,2.191,3.221,1.674,5.067-4.14,6.92-7.682,3.219C230.851,255.759,230.272,252.47,231.932,250.845Z" style="fill:#2b2a3a"/><path d="M405,349.109c-3.317-4.236-9.7.591-6.528,4.937C401.784,358.281,408.167,353.454,405,349.109Z" style="fill:#2b2a3a"/><path d="M444.087,304.235c4.236-3.318-.591-9.7-4.936-6.529C434.915,301.023,439.742,307.406,444.087,304.235Z" style="fill:#2b2a3a"/><path d="M461.219,197.666c-4.236,3.318.591,9.7,4.936,6.529C470.391,200.878,465.564,194.5,461.219,197.666Z" style="fill:#2b2a3a"/><path d="M387.977,413.5c-4.235,3.317.591,9.7,4.937,6.528C397.149,416.714,392.323,410.331,387.977,413.5Z" style="fill:#2b2a3a"/><path d="M190.026,394.529c-3.318-4.236-9.7.591-6.529,4.936C186.814,403.7,193.2,398.874,190.026,394.529Z" style="fill:#2b2a3a"/><path d="M213.99,421.791c-4.236,3.318.591,9.7,4.936,6.529C223.162,425,218.335,418.62,213.99,421.791Z" style="fill:#2b2a3a"/><path d="M293.012,420.753c-4.235,3.317.591,9.7,4.937,6.529C302.184,423.964,297.357,417.582,293.012,420.753Z" style="fill:#2b2a3a"/><path d="M330.169,395c-4.236,3.318.591,9.7,4.936,6.529C339.341,398.209,334.514,391.826,330.169,395Z" style="fill:#2b2a3a"/><path d="M253.406,435.413c-4.235,3.317.591,9.7,4.937,6.528C262.578,438.624,257.751,432.241,253.406,435.413Z" style="fill:#2b2a3a"/><path d="M62.627,150.281c4.236-3.317-.591-9.7-4.936-6.529C53.455,147.069,58.282,153.453,62.627,150.281Z" style="fill:#2b2a3a"/></svg>