<?xml version="1.0" encoding="UTF-8"?>
<!DOCTYPE svg PUBLIC "-//W3C//DTD SVG 1.1//EN" "http://www.w3.org/Graphics/SVG/1.1/DTD/svg11.dtd">
<!-- Creator: CorelDRAW -->
<svg xmlns="http://www.w3.org/2000/svg" xml:space="preserve" width="1.70666in" height="1.70666in" version="1.1" style="shape-rendering:geometricPrecision; text-rendering:geometricPrecision; image-rendering:optimizeQuality; fill-rule:evenodd; clip-rule:evenodd"
viewBox="0 0 1706.66 1706.66"
 xmlns:xlink="http://www.w3.org/1999/xlink"
 xmlns:xodm="http://www.corel.com/coreldraw/odm/2003">
 <defs>
  <style type="text/css">
   <![CDATA[
    .fil0 {fill:black}
   ]]>
  </style>
 </defs>
 <g id="Layer_x0020_1">
  <metadata id="CorelCorpID_0Corel-Layer"/>
  <path class="fil0" d="M1266.87 1706.64l-486.41 0 -14.38 -41.47c52.54,-102.16 129.18,-131.28 208.14,-189.68l0 50.31 -11.53 0c-26.3,0 -26.3,40 0,40l62.92 0c26.39,0 26.24,-40 0,-40l-11.39 0 0 -82.81c6.93,-6.23 31.59,-27.87 34.44,-37.18 6.26,-19.96 11.66,-39.34 16.19,-58.13 81.24,14.98 151.79,58 202.01,118.2l0 240.76zm-741.52 -130.97l-62.92 0c-26.33,0 -26.33,-40 0,-40l11.53 0 0 -81.15c-51.59,-41.21 -48.93,-41.15 -67.32,-103.25 -154.98,36.49 -265.32,174.08 -265.32,335.37 0,10.97 8.89,20 20,20l543.64 0 12.77 -41.52c-54.85,-101.89 -128.12,-131.19 -203.77,-181.59l0 52.13 11.39 0c26.33,0 26.33,40 0,40zm215.11 15.58l-68.87 -198.63c-0.68,-2.3 -17.68,-53.95 -62.53,-67.83 102.08,-7.86 189.05,-6.58 257.83,-2.11l-2.52 1.05c-47.22,12.64 -62.36,67.36 -63.05,69.72l-60.86 197.8z"/>
  <path class="fil0" d="M1041.73 1239.69c-57.3,79.46 -159.72,120.6 -166.25,122.5 -25.28,6.25 -35.28,41.25 -35.41,41.67l-34.44 129.31c29.17,-29.17 61.11,-46.25 93.89,-63.75 36.67,-19.58 74.44,-39.72 112.36,-80 17.08,-55 27.08,-105.14 29.86,-149.72z"/>
  <path class="fil0" d="M461.04 1389c75.5,76.02 147.75,81.36 212.91,142.92l-40.42 -127.22c-3.98,-9.88 -10.56,-32.34 -40.97,-43.06 -5.56,-2.08 -108.06,-42.22 -169.03,-120.69 5.28,43.89 17.78,93.47 37.5,148.05z"/>
  <path class="fil0" d="M727.71 1251.36c-180.17,0 -326.8,-146.63 -326.8,-326.8l0 -227.49c0,-48.28 73.33,-48.28 73.33,0l0 227.5c0,139.76 113.72,253.47 253.47,253.47 139.76,0 253.46,-113.72 253.47,-253.47l0 -227.5c0,-48.29 73.33,-48.29 73.33,0l0 227.5c0,180.23 -146.57,326.8 -326.8,326.8z"/>
  <path class="fil0" d="M503.92 487.21c30.28,-60.13 -6.75,-76.59 43.38,-136.54l24.42 -31.09c-6.78,-34.13 6.89,-92.17 8.9,-95.99 28.71,-54.36 68.39,-146.83 95.7,-196.39 11.37,-20.64 42.71,-41.19 67.78,-14.44 7.92,8.47 34.86,13.47 52.36,14.44 105.83,-27.5 217.64,106.25 222.5,112.09 8.29,9.94 8.74,30.3 -0,42.78 -13.06,18.61 -40.97,21.11 -51.25,21.39 -21.11,5.27 -40.42,7.5 -57.92,7.5 -8.85,0 -17.24,-0.57 -25.2,-1.62 -0.76,58.72 -0.61,48.24 -28.97,90.02 28.79,23.85 32.68,73.4 28.89,110.91 15.06,9.79 34.67,31.4 57.93,76.56 39.11,0.65 114.72,11.98 166.67,-35.45 67.06,-61.22 104.15,7.63 102.22,71.81 -0.42,6.94 -10.42,144.03 -242.36,212.36 -106.22,31.74 -375.85,31.76 -482.08,-0.28 -231.67,-68.33 -241.8,-205.42 -242.08,-211.11 -1.67,-67.89 36.19,-133.28 102.22,-72.92 45.8,41.88 116.37,38.62 156.9,35.98zm196.4 -59.45c-30.17,0 -27.33,-40.72 -0.97,-40 28.06,0.83 55.14,-58.75 63.61,-87.92 7.28,-25.11 45.53,-14.36 38.33,11.11 -3.33,12.08 -35.56,116.81 -100.97,116.81zm5.21 -223.96c-30.17,0 -27.33,-40.72 -0.97,-40 28.06,0.83 55.14,-58.75 63.61,-87.92 7.28,-25.11 45.53,-14.36 38.33,11.11 -3.33,12.08 -35.56,116.81 -100.97,116.81zm-139.07 429.24c-30.17,0 -27.33,-40.72 -0.97,-40 28.06,0.83 55.14,-58.75 63.61,-87.92 7.28,-25.11 45.53,-14.36 38.33,11.11 -3.33,12.08 -35.56,116.81 -100.97,116.81zm335.13 30.28c-65.41,0 -97.63,-104.72 -101.11,-116.94 -7.26,-25.3 31.02,-36.34 38.33,-11.11 8.47,29.17 34.86,88.61 63.61,87.92 26.38,-1.15 29.18,40.14 -0.83,40.14z"/>
  <path class="fil0" d="M1420.34 1706.64l-93.47 0c-10.97,0 -20,-9.03 -20,-20l0 -241.27c14.78,2.87 118.66,2.88 133.47,-0.03l0 241.3c0,10.97 -9.03,20 -20,20z"/>
  <path class="fil0" d="M1431.19 1424.39l-115.28 0c-33.22,0 -60.41,-27.03 -60.41,-60.41l0 -152.07c0,-12.86 10.58,-23.44 23.44,-23.44l189.04 0c12.86,0 23.44,10.58 23.44,23.44l0 152.07c0.16,33.38 -27.03,60.41 -60.24,60.41z"/>
  <path class="fil0" d="M1408.4 1246.08c-34.11,0 -29.99,-27.05 -20.14,-35.42 64.44,-55.14 14.86,-158.61 14.44,-159.58 -10.28,-18.33 -13.06,-48.47 -12.64,-78.75 -17.08,26.53 -26.39,61.67 -5.56,172.36 4.09,22.2 -26.69,44.67 -71.39,-14.58 18.18,86.32 60.53,74.38 50.28,102.5 -3.33,9.03 -12.36,14.44 -21.67,13.06 -192.47,-29.63 -165.85,-389.38 -62.08,-477.35 16.67,-14.13 41.01,5.32 30.56,24.72 -22.08,41.11 -24.31,78.19 -19.58,107.36 10.56,-48.89 32.5,-106.66 78.06,-127.36 47.92,-21.81 55.56,-106.81 54.58,-137.64 -0.64,-20.68 26.89,-28.82 37.22,-10.69 78.33,137.08 62.5,206.8 43.61,272.08 54.63,-46.95 64.53,-8.68 60.42,3.33 -32.06,93.7 -10.22,345.96 -156.11,345.96z"/>
 </g>
</svg>
