<?xml version="1.0" encoding="utf-8"?>
<svg xmlns="http://www.w3.org/2000/svg" style="enable-background:new 0 0 512 512;" version="1.1" viewBox="0 0 512 512" x="0px" y="0px">
<g id="_x33_9_x2C__wand_x2C__Magic_Wand_x2C__magic_trick_x2C__magic_x2C__carnival">
	<g>
		<g>
			<path d="M508.891,222.944l-60.937-81.656l32.722-96.489c1.298-3.83,0.31-8.065-2.549-10.926&#xD;&#xA;				c-2.862-2.86-7.096-3.846-10.926-2.549l-96.489,32.721L289.055,3.11c-3.241-2.419-7.575-2.786-11.178-0.952&#xD;&#xA;				c-3.604,1.836-5.852,5.559-5.8,9.603l1.302,101.878l-83.186,58.829c-3.302,2.335-4.992,6.342-4.36,10.337&#xD;&#xA;				c0.633,3.994,3.479,7.284,7.341,8.484l62.904,19.554L10.321,456.599c-12.428,12.429-12.428,32.651,0,45.08&#xD;&#xA;				c6.214,6.214,14.377,9.321,22.54,9.321s16.326-3.107,22.54-9.321l245.757-245.757l19.554,62.905&#xD;&#xA;				c1.201,3.862,4.489,6.708,8.484,7.341c0.556,0.088,1.112,0.131,1.664,0.131c3.414,0,6.663-1.648,8.674-4.491l58.827-83.186&#xD;&#xA;				l101.878,1.302c4.062,0.025,7.767-2.197,9.603-5.8C511.678,230.519,511.309,226.186,508.891,222.944z M40.374,486.652&#xD;&#xA;				c-4.142,4.143-10.884,4.143-15.026,0c-4.143-4.143-4.143-10.883,0-15.026l77.116-77.116l15.026,15.026L40.374,486.652z&#xD;&#xA;				 M170.083,356.942l-15.026-15.026l123.947-123.947l11.464,3.563l3.563,11.462L170.083,356.942z M393.047,217.301&#xD;&#xA;				c-0.046-0.001-0.091-0.001-0.136-0.001c-3.446,0-6.682,1.672-8.676,4.49l-49.622,70.169l-18.335-58.985&#xD;&#xA;				c-0.008-0.027-0.017-0.054-0.025-0.081l-7.151-23.003c-1.038-3.34-3.652-5.954-6.992-6.993l-23.02-7.156&#xD;&#xA;				c-0.019-0.006-0.037-0.012-0.056-0.017l-58.994-18.338l70.17-49.624c2.855-2.019,4.533-5.314,4.489-8.811l-1.099-85.936&#xD;&#xA;				l68.879,51.4c2.803,2.092,6.453,2.67,9.767,1.547l81.391-27.6l-27.601,81.391c-1.123,3.312-0.544,6.964,1.547,9.767&#xD;&#xA;				l51.401,68.878L393.047,217.301z" id="XMLID_254_"/>
			<path d="M394.6,149.739l9.681-28.546c1.298-3.83,0.31-8.065-2.549-10.926c-2.862-2.86-7.096-3.847-10.926-2.549&#xD;&#xA;				l-28.545,9.68l-24.157-18.027c-3.241-2.419-7.575-2.786-11.178-0.952c-3.604,1.836-5.852,5.559-5.8,9.603l0.385,30.139&#xD;&#xA;				L296.9,155.567c-3.302,2.335-4.992,6.342-4.359,10.337c0.633,3.994,3.478,7.284,7.34,8.484l28.784,8.947l8.947,28.784&#xD;&#xA;				c1.201,3.862,4.489,6.708,8.484,7.341c0.556,0.088,1.112,0.131,1.664,0.131c3.414,0,6.663-1.648,8.674-4.491l17.403-24.61&#xD;&#xA;				l30.139,0.384c4.003,0.04,7.767-2.197,9.603-5.8c1.836-3.604,1.467-7.937-0.951-11.179L394.6,149.739z" id="XMLID_252_"/>
			<path d="M70.559,87.295l-5.02,29.266c-0.684,3.986,0.955,8.015,4.227,10.392&#xD;&#xA;				c3.272,2.377,7.609,2.691,11.19,0.809l26.283-13.818l26.283,13.818c1.554,0.817,3.252,1.22,4.943,1.22&#xD;&#xA;				c2.203,0,4.395-0.684,6.247-2.029c3.272-2.377,4.911-6.406,4.227-10.392l-5.02-29.266l21.263-20.727&#xD;&#xA;				c2.897-2.823,3.939-7.045,2.689-10.892s-4.575-6.65-8.578-7.231l-29.385-4.27l-13.142-26.627&#xD;&#xA;				c-1.79-3.627-5.484-5.923-9.528-5.923c-4.044,0-7.738,2.296-9.528,5.923L84.569,44.175l-29.385,4.27&#xD;&#xA;				c-4.003,0.582-7.328,3.385-8.578,7.231c-1.25,3.846-0.208,8.069,2.689,10.892L70.559,87.295z M93.152,64.401&#xD;&#xA;				c3.461-0.503,6.452-2.677,8-5.812l6.086-12.331l6.086,12.331c1.548,3.136,4.539,5.31,8,5.812l13.607,1.978l-9.847,9.598&#xD;&#xA;				c-2.504,2.441-3.647,5.958-3.056,9.405l2.324,13.552l-12.171-6.399c-1.548-0.813-3.246-1.22-4.944-1.22&#xD;&#xA;				c-1.698,0-3.397,0.407-4.944,1.22l-12.171,6.399l2.324-13.552c0.591-3.447-0.551-6.964-3.056-9.405l-9.847-9.598L93.152,64.401z" id="XMLID_237_"/>
			<path d="M478.052,399.08l-29.386-4.27l-13.141-26.627c-1.79-3.626-5.484-5.923-9.529-5.923&#xD;&#xA;				c-4.045,0-7.739,2.296-9.529,5.923l-13.141,26.627l-29.386,4.27c-4.002,0.582-7.327,3.385-8.577,7.231&#xD;&#xA;				c-1.249,3.846-0.208,8.069,2.689,10.892l21.263,20.727l-5.02,29.266c-0.684,3.986,0.956,8.015,4.227,10.392&#xD;&#xA;				c3.272,2.378,7.611,2.691,11.19,0.809l26.283-13.818l26.283,13.818c1.554,0.817,3.252,1.22,4.943,1.22&#xD;&#xA;				c2.203,0,4.395-0.684,6.247-2.03c3.272-2.377,4.911-6.406,4.227-10.392l-5.02-29.266l21.263-20.727&#xD;&#xA;				c2.896-2.823,3.938-7.045,2.689-10.892C485.379,402.465,482.054,399.662,478.052,399.08z M443.844,426.612&#xD;&#xA;				c-2.504,2.441-3.646,5.958-3.056,9.405l2.325,13.552l-12.171-6.399c-1.548-0.813-3.246-1.22-4.944-1.22&#xD;&#xA;				c-1.699,0-3.396,0.407-4.944,1.22l-12.171,6.399l2.325-13.552c0.59-3.446-0.552-6.964-3.056-9.405l-9.847-9.598l13.608-1.978&#xD;&#xA;				c3.46-0.503,6.452-2.677,8-5.812l6.085-12.33l6.085,12.33c1.548,3.136,4.54,5.31,8,5.812l13.608,1.978L443.844,426.612z" id="XMLID_230_"/>
		</g>
	</g>
</g>
<g id="Layer_1">
</g>
</svg>